<?xml version="1.0" encoding="utf-8"?>
<!-- Generator: Adobe Illustrator 25.2.3, SVG Export Plug-In . SVG Version: 6.00 Build 0)  -->
<svg version="1.1" id="Layer_1" xmlns="http://www.w3.org/2000/svg" xmlns:xlink="http://www.w3.org/1999/xlink" x="0px" y="0px"
	 viewBox="0 0 45 45" style="enable-background:new 0 0 45 45;" xml:space="preserve">
<style type="text/css">
	.st0{fill:#FFFFFF;}
	.st1{fill-rule:evenodd;clip-rule:evenodd;fill:#FFFFFF;}
</style>
<path class="st0" d="M42.52,0H2.48C1.11,0,0,1.11,0,2.48v40.03C0,43.89,1.11,45,2.48,45h21.55V27.6h-5.84v-6.81h5.84v-5.01
	c0-5.81,3.55-8.98,8.73-8.98c2.48,0,4.62,0.19,5.24,0.27v6.08h-3.58c-2.82,0-3.37,1.34-3.37,3.31v4.34h6.75l-0.88,6.81h-5.87V45
	h11.45c1.37,0,2.48-1.11,2.48-2.48c0,0,0,0,0,0V2.48C45,1.11,43.89,0,42.52,0z"/>
</svg>
