<?xml version="1.0" encoding="utf-8"?>
<!-- Generator: Adobe Illustrator 25.2.3, SVG Export Plug-In . SVG Version: 6.00 Build 0)  -->
<svg version="1.1" id="Layer_1" xmlns="http://www.w3.org/2000/svg" xmlns:xlink="http://www.w3.org/1999/xlink" x="0px" y="0px"
	 viewBox="0 0 64.27 45" style="enable-background:new 0 0 64.27 45;" xml:space="preserve">
<style type="text/css">
	.st0{fill:#FFFFFF;}
	.st1{fill-rule:evenodd;clip-rule:evenodd;fill:#FFFFFF;}
</style>
<path class="st0" d="M62.95,7.04c-0.74-2.75-2.91-4.92-5.66-5.67C52.25,0,32.13,0,32.13,0S12.02,0,6.99,1.32
	c-2.7,0.74-4.92,2.96-5.66,5.72C0,12.07,0,22.5,0,22.5s0,10.48,1.32,15.46c0.74,2.75,2.91,4.92,5.66,5.66
	C12.07,45,32.14,45,32.14,45s20.12,0,25.15-1.32c2.75-0.74,4.92-2.91,5.67-5.66c1.32-5.03,1.32-15.46,1.32-15.46
	S64.32,12.07,62.95,7.04z M25.73,32.14V12.86l16.73,9.64L25.73,32.14z"/>
</svg>
