<?xml version="1.0" encoding="utf-8"?>
<!-- Generator: Adobe Illustrator 25.2.3, SVG Export Plug-In . SVG Version: 6.00 Build 0)  -->
<svg version="1.1" id="Layer_1" xmlns="http://www.w3.org/2000/svg" xmlns:xlink="http://www.w3.org/1999/xlink" x="0px" y="0px"
	 viewBox="0 0 44.78 45" style="enable-background:new 0 0 44.78 45;" xml:space="preserve">
<style type="text/css">
	.st0{fill:#FFFFFF;}
	.st1{fill-rule:evenodd;clip-rule:evenodd;fill:#FFFFFF;}
</style>
<g>
	<path class="st1" d="M38.26,6.54C34.05,2.32,28.45,0,22.49,0C10.2,0,0.19,10,0.19,22.3c0,3.93,1.03,7.77,2.98,11.15L0,45l11.82-3.1
		c3.26,1.78,6.92,2.71,10.66,2.71h0.01c12.29,0,22.29-10,22.3-22.3C44.79,16.36,42.47,10.75,38.26,6.54z M22.49,40.85L22.49,40.85
		c-3.33,0-6.59-0.9-9.44-2.58l-0.68-0.4L5.35,39.7l1.87-6.84l-0.44-0.7c-1.86-2.95-2.84-6.36-2.83-9.86
		c0-10.22,8.32-18.53,18.54-18.53c4.95,0,9.6,1.93,13.1,5.44s5.43,8.16,5.42,13.11C41.02,32.53,32.7,40.85,22.49,40.85z
		 M32.65,26.97c-0.56-0.28-3.3-1.63-3.81-1.81c-0.51-0.19-0.88-0.28-1.25,0.28c-0.37,0.56-1.44,1.81-1.76,2.18
		c-0.33,0.37-0.65,0.42-1.21,0.14c-0.56-0.28-2.35-0.87-4.48-2.77c-1.66-1.48-2.77-3.3-3.1-3.86c-0.32-0.56,0-0.83,0.24-1.14
		c0.6-0.75,1.21-1.53,1.39-1.91c0.19-0.37,0.09-0.7-0.05-0.98c-0.14-0.28-1.25-3.02-1.72-4.14c-0.45-1.09-0.91-0.94-1.25-0.96
		C15.33,12,14.96,12,14.59,12c-0.37,0-0.98,0.14-1.49,0.7c-0.51,0.56-1.95,1.91-1.95,4.65s2,5.39,2.27,5.76s3.93,6,9.52,8.41
		c1.33,0.57,2.37,0.92,3.18,1.17c1.33,0.42,2.55,0.36,3.51,0.22c1.07-0.16,3.3-1.35,3.76-2.65c0.46-1.3,0.46-2.42,0.32-2.65
		C33.58,27.38,33.21,27.25,32.65,26.97z"/>
</g>
</svg>
