<?xml version="1.0" encoding="utf-8"?>
<!-- Generator: Adobe Illustrator 25.2.3, SVG Export Plug-In . SVG Version: 6.00 Build 0)  -->
<svg version="1.1" id="Layer_1" xmlns="http://www.w3.org/2000/svg" xmlns:xlink="http://www.w3.org/1999/xlink" x="0px" y="0px"
	 viewBox="0 0 44.99 45" style="enable-background:new 0 0 44.99 45;" xml:space="preserve">
<style type="text/css">
	.st0{fill:#FFFFFF;}
	.st1{fill-rule:evenodd;clip-rule:evenodd;fill:#FFFFFF;}
</style>
<g>
	<path class="st0" d="M44.88,13.23c-0.11-2.39-0.49-4.03-1.05-5.46c-0.57-1.51-1.45-2.87-2.6-3.99c-1.13-1.14-2.49-2.03-3.98-2.59
		c-1.43-0.55-3.07-0.94-5.46-1.05C29.38,0.03,28.61,0,22.5,0s-6.87,0.03-9.27,0.13C10.84,0.24,9.2,0.62,7.77,1.18
		c-1.51,0.57-2.87,1.45-3.99,2.6C2.64,4.91,1.75,6.27,1.19,7.76c-0.55,1.43-0.94,3.07-1.05,5.46C0.03,15.63,0,16.39,0,22.5
		s0.03,6.87,0.13,9.27c0.11,2.39,0.49,4.03,1.05,5.46c0.57,1.51,1.46,2.87,2.6,3.99c1.13,1.14,2.49,2.03,3.98,2.59
		c1.43,0.55,3.07,0.94,5.46,1.05c2.4,0.11,3.16,0.13,9.27,0.13s6.87-0.03,9.27-0.13c2.39-0.11,4.03-0.49,5.46-1.05
		c3.02-1.17,5.42-3.56,6.58-6.58c0.55-1.43,0.94-3.07,1.05-5.46c0.11-2.4,0.13-3.16,0.13-9.27S44.98,15.63,44.88,13.23z M40.82,31.6
		c-0.1,2.2-0.47,3.38-0.77,4.18c-0.76,1.96-2.31,3.52-4.27,4.27c-0.79,0.31-1.99,0.68-4.18,0.77c-2.37,0.11-3.09,0.13-9.09,0.13
		s-6.72-0.03-9.09-0.13c-2.2-0.1-3.38-0.47-4.18-0.77c-0.98-0.36-1.86-0.93-2.58-1.68c-0.75-0.73-1.32-1.61-1.68-2.58
		C4.68,35,4.31,33.8,4.21,31.61c-0.11-2.37-0.13-3.09-0.13-9.09s0.03-6.72,0.13-9.09c0.1-2.2,0.47-3.38,0.77-4.18
		c0.36-0.98,0.93-1.86,1.69-2.58C7.4,5.92,8.28,5.35,9.26,4.99c0.79-0.31,1.99-0.68,4.18-0.77c2.37-0.11,3.09-0.13,9.09-0.13
		c6.01,0,6.72,0.03,9.09,0.13c2.2,0.1,3.38,0.47,4.18,0.77c0.98,0.36,1.86,0.93,2.58,1.68c0.75,0.73,1.32,1.61,1.68,2.58
		c0.31,0.79,0.68,1.99,0.77,4.18c0.11,2.37,0.13,3.09,0.13,9.09S40.93,29.23,40.82,31.6z"/>
	<path class="st0" d="M22.5,10.94c-6.38,0-11.56,5.18-11.56,11.56s5.18,11.56,11.56,11.56c6.38,0,11.56-5.18,11.56-11.56
		S28.89,10.94,22.5,10.94z M22.5,30c-4.14,0-7.5-3.36-7.5-7.5s3.36-7.5,7.5-7.5c4.14,0,7.5,3.36,7.5,7.5S26.65,30,22.5,30z"/>
	<path class="st0" d="M37.22,10.49c0,1.49-1.21,2.7-2.7,2.7c-1.49,0-2.7-1.21-2.7-2.7c0-1.49,1.21-2.7,2.7-2.7
		C36.01,7.79,37.22,9,37.22,10.49z"/>
</g>
</svg>
