<?xml version="1.0" encoding="utf-8"?>
<!-- Generator: Adobe Illustrator 25.2.3, SVG Export Plug-In . SVG Version: 6.00 Build 0)  -->
<svg version="1.1" id="Layer_1" xmlns="http://www.w3.org/2000/svg" xmlns:xlink="http://www.w3.org/1999/xlink" x="0px" y="0px"
	 viewBox="0 0 47.08 45" style="enable-background:new 0 0 47.08 45;" xml:space="preserve">
<style type="text/css">
	.st0{fill:#FFFFFF;}
	.st1{fill-rule:evenodd;clip-rule:evenodd;fill:#FFFFFF;}
</style>
<g>
	<path class="st0" d="M5.71,0C2.26,0,0,2.27,0,5.25c0,2.91,2.19,5.25,5.58,5.25h0.07c3.52,0,5.71-2.33,5.71-5.25
		C11.29,2.27,9.16,0,5.71,0z"/>
	<path class="st0" d="M0.6,14.64h10.09V45H0.6V14.64z"/>
	<path class="st0" d="M35.46,13.92c-5.44,0-9.1,5.12-9.1,5.12v-4.4H16.27V45h10.09V28.04c0-0.91,0.07-1.81,0.33-2.46
		c0.73-1.81,2.39-3.69,5.18-3.69c3.65,0,5.11,2.78,5.11,6.87V45h10.09V27.59C47.08,18.26,42.1,13.92,35.46,13.92z"/>
</g>
</svg>
