<?xml version="1.0" encoding="utf-8"?>
<!-- Generator: Adobe Illustrator 25.2.3, SVG Export Plug-In . SVG Version: 6.00 Build 0)  -->
<svg version="1.1" id="Layer_1" xmlns="http://www.w3.org/2000/svg" xmlns:xlink="http://www.w3.org/1999/xlink" x="0px" y="0px"
	 viewBox="0 0 55.37 45" style="enable-background:new 0 0 55.37 45;" xml:space="preserve">
<style type="text/css">
	.st0{fill:#FFFFFF;}
	.st1{fill-rule:evenodd;clip-rule:evenodd;fill:#FFFFFF;}
</style>
<path class="st0" d="M17.41,45c20.9,0,32.32-17.31,32.32-32.32c0-0.49-0.01-0.98-0.03-1.47c2.22-1.6,4.15-3.6,5.67-5.88
	c-2.04,0.91-4.23,1.51-6.52,1.79c2.35-1.41,4.15-3.63,5-6.28c-2.19,1.3-4.63,2.25-7.21,2.76C44.56,1.38,41.6,0,38.34,0
	c-6.27,0-11.36,5.09-11.36,11.36c0,0.89,0.1,1.76,0.29,2.59c-9.44-0.48-17.81-5-23.42-11.87C2.88,3.76,2.32,5.71,2.32,7.79
	c0,3.94,2.01,7.42,5.06,9.46c-1.86-0.06-3.61-0.57-5.14-1.42c0,0.05,0,0.09,0,0.14c0,5.5,3.92,10.1,9.11,11.14
	c-0.95,0.26-1.96,0.4-3,0.4c-0.73,0-1.44-0.07-2.14-0.2c1.45,4.51,5.64,7.8,10.61,7.89c-3.89,3.05-8.79,4.86-14.11,4.86
	C1.79,40.05,0.89,40,0,39.9C5.03,43.12,11,45,17.41,45"/>
</svg>
