<?xml version="1.0" encoding="utf-8"?>
<!-- Generator: Adobe Illustrator 25.2.3, SVG Export Plug-In . SVG Version: 6.00 Build 0)  -->
<svg version="1.1" id="Layer_1" xmlns="http://www.w3.org/2000/svg" xmlns:xlink="http://www.w3.org/1999/xlink" x="0px" y="0px"
	 viewBox="0 0 612 154" style="enable-background:new 0 0 612 154;" xml:space="preserve">
<style type="text/css">
	.st0{fill:#522D6D;}
	.st1{fill:#808080;}
	.st2{fill:#96C121;}
	.st3{fill:#00BBB4;}
	.st4{fill:#2E1A46;}
	.st5{fill:#DAE343;}
	.st6{fill:#84DADE;}
	.st7{fill:#A975B2;}
	.st8{fill:#FF9015;}
	.st9{fill:#FFB259;}
	.st10{fill:#FECB8B;}
	.st11{fill:#FF7F30;}
</style>
<g>
	<g>
		<g>
			<path class="st0" d="M230.12,45.71v2.5h7.51v3.63h-7.51v2.52h8.51v3.63H225.4V42.08h13v3.63H230.12z"/>
			<path class="st0" d="M256.71,57.98h-5.67l-3.02-4.54l-2.97,4.54h-5.51l5.63-8.1l-5.26-7.81h5.49l2.63,4.15l2.65-4.15h5.56
				l-5.2,7.6L256.71,57.98z"/>
			<path class="st0" d="M265.26,42.08c4.11,0,6.47,2.04,6.47,5.65c0,3.79-2.36,5.97-6.47,5.97h-2.5v4.29h-4.72V42.08H265.26z
				 M262.77,50.06h2.27c1.41,0,2.22-0.77,2.22-2.2c0-1.38-0.82-2.16-2.22-2.16h-2.27V50.06z"/>
			<path class="st0" d="M289.97,50.02c0,4.67-3.68,8.17-8.67,8.17c-4.99,0-8.67-3.47-8.67-8.17c0-4.67,3.68-8.08,8.67-8.08
				C286.29,41.94,289.97,45.37,289.97,50.02z M277.47,50.04c0,2.4,1.82,4.2,3.9,4.2c2.09,0,3.77-1.79,3.77-4.2s-1.68-4.15-3.77-4.15
				C279.26,45.89,277.47,47.64,277.47,50.04z"/>
			<path class="st0" d="M291.58,52.42v-2.86h6.19v2.86H291.58z"/>
			<path class="st0" d="M305,45.71v2.5h7.51v3.63H305v2.52h8.51v3.63h-13.23V42.08h13v3.63H305z"/>
			<path class="st0" d="M326.85,57.98l-6.74-8.85v8.85h-4.33V42.08h4.04l6.74,8.89v-8.89h4.31v15.91H326.85z"/>
			<path class="st0" d="M347.77,44.75l-2.72,3.22c-1-1.27-2.47-2.11-3.79-2.11c-2.16,0-3.79,1.75-3.79,4.08
				c0,2.34,1.63,4.11,3.79,4.11c1.23,0,2.7-0.73,3.79-1.84l2.72,2.9c-1.72,1.86-4.33,3.06-6.74,3.06c-4.83,0-8.4-3.49-8.4-8.19
				c0-4.63,3.63-8.05,8.55-8.05C343.59,41.94,346.16,43.03,347.77,44.75z"/>
			<path class="st0" d="M363.9,51.27c0,4.22-2.88,6.92-7.42,6.92c-4.56,0-7.53-2.7-7.53-6.92v-9.19h4.72v9.19
				c0,1.84,1.25,2.97,2.84,2.97c1.57,0,2.68-1.11,2.68-2.97v-9.19h4.72V51.27z"/>
			<path class="st0" d="M371.04,45.71v2.5h7.51v3.63h-7.51v2.52h8.51v3.63h-13.23V42.08h13v3.63H371.04z"/>
			<path class="st0" d="M392.89,57.98l-6.74-8.85v8.85h-4.33V42.08h4.04l6.74,8.89v-8.89h4.31v15.91H392.89z"/>
			<path class="st0" d="M407.72,45.84v12.14h-4.74V45.84h-4.61v-3.77h13.98v3.77H407.72z"/>
			<path class="st0" d="M421.04,53.69h-2.5v4.29h-4.72V42.08h7.42c4.27,0,6.72,2.04,6.72,5.65c0,2.36-0.95,4.08-2.68,5.06l3.22,5.2
				h-5.35L421.04,53.69z M421.24,50.06c1.41,0,2.22-0.77,2.22-2.2c0-1.38-0.82-2.16-2.22-2.16h-2.7v4.36H421.24z"/>
			<path class="st0" d="M446.7,50.02c0,4.67-3.68,8.17-8.67,8.17c-4.99,0-8.67-3.47-8.67-8.17c0-4.67,3.68-8.08,8.67-8.08
				C443.02,41.94,446.7,45.37,446.7,50.02z M434.19,50.04c0,2.4,1.82,4.2,3.9,4.2c2.09,0,3.77-1.79,3.77-4.2s-1.68-4.15-3.77-4.15
				C435.99,45.89,434.19,47.64,434.19,50.04z"/>
		</g>
		<g>
			<path class="st1" d="M239.79,84.08l-0.02-13.09l-5.79,11.41h-1.09l-5.76-11.41v13.09h-1.72V68.2h2.25l5.81,11.44l5.79-11.44h2.22
				v15.88H239.79z"/>
			<path class="st1" d="M256.35,78.8h-9.76c0.32,2.34,2.02,3.81,4.33,3.81c1.47,0,2.77-0.52,3.7-1.5l0.98,1.04
				c-1.13,1.27-2.81,2-4.81,2c-3.52,0-5.94-2.47-5.94-6.04c0-3.56,2.45-6.04,5.92-6.04C254.62,72.06,256.53,74.73,256.35,78.8z
				 M254.76,77.34c-0.11-2.29-1.66-3.74-3.99-3.74c-2.27,0-3.9,1.47-4.17,3.74H254.76z"/>
			<path class="st1" d="M270.37,84.08h-1.77v-2.56c-0.88,1.68-2.52,2.65-4.65,2.65c-3.4,0-5.76-2.52-5.76-6.08
				c0-3.59,2.36-6.06,5.74-6.06c2.13,0,3.79,0.98,4.67,2.68v-7.46h1.77V84.08z M268.6,78.14c0-2.61-1.79-4.49-4.31-4.49
				c-2.54,0-4.33,1.88-4.33,4.49c0,2.59,1.79,4.45,4.33,4.45C266.81,82.58,268.6,80.72,268.6,78.14z"/>
			<path class="st1" d="M276.81,68.7c0,0.7-0.5,1.23-1.16,1.23c-0.66,0-1.16-0.52-1.16-1.23s0.5-1.23,1.16-1.23
				C276.31,67.47,276.81,67.99,276.81,68.7z M274.79,84.08V72.12h1.75v11.96H274.79z"/>
			<path class="st1" d="M290.17,73.85l-0.98,1.25c-0.91-0.86-2.11-1.38-3.56-1.38c-2.47,0-4.24,1.79-4.24,4.4
				c0,2.61,1.77,4.42,4.24,4.42c1.57,0,2.86-0.55,3.7-1.54l1.02,1.09c-1.07,1.29-2.72,2.06-4.79,2.06c-3.47,0-5.92-2.47-5.92-6.04
				c0-3.56,2.47-6.04,5.92-6.04C287.49,72.06,289.08,72.71,290.17,73.85z"/>
			<path class="st1" d="M295.59,68.7c0,0.7-0.5,1.23-1.16,1.23c-0.66,0-1.16-0.52-1.16-1.23s0.5-1.23,1.16-1.23
				C295.09,67.47,295.59,67.99,295.59,68.7z M293.57,84.08V72.12h1.75v11.96H293.57z"/>
			<path class="st1" d="M310.56,76.71v7.37h-1.77v-6.9c0-2.11-1.27-3.36-3.38-3.36c-2.36,0.02-3.81,1.57-4.02,3.83v6.42h-1.77V72.12
				h1.77v2.63c0.84-1.82,2.45-2.68,4.63-2.7C308.88,72.06,310.56,73.83,310.56,76.71z"/>
			<path class="st1" d="M321.93,82.24c-0.95,1.29-2.47,1.93-4.38,1.93c-2.47,0-4.06-1.59-4.06-3.65c0-2.09,1.66-3.4,4.47-3.43h3.92
				v-0.7c0-1.75-1.09-2.79-3.2-2.79c-1.32,0-2.54,0.5-3.79,1.36l-0.75-1.29c1.54-1.02,2.84-1.61,4.88-1.61
				c2.95,0,4.58,1.57,4.61,4.13l0.02,7.9h-1.72V82.24z M321.91,79.95v-1.43h-3.72c-2,0-3.04,0.61-3.04,1.93
				c0,1.32,1.07,2.18,2.75,2.18C319.91,82.63,321.45,81.61,321.91,79.95z"/>
			<path class="st1" d="M338.9,69.95v14.14h-1.82V69.95h-5.17V68.2h12.18v1.75H338.9z"/>
			<path class="st1" d="M347.11,74.78c0.79-1.75,2.27-2.7,4.29-2.72v1.79c-2.52-0.05-4.08,1.52-4.29,3.88v6.35h-1.77V72.12h1.77
				V74.78z"/>
			<path class="st1" d="M360.63,82.24c-0.95,1.29-2.47,1.93-4.38,1.93c-2.47,0-4.06-1.59-4.06-3.65c0-2.09,1.66-3.4,4.47-3.43h3.92
				v-0.7c0-1.75-1.09-2.79-3.2-2.79c-1.32,0-2.54,0.5-3.79,1.36l-0.75-1.29c1.54-1.02,2.84-1.61,4.88-1.61
				c2.95,0,4.58,1.57,4.61,4.13l0.02,7.9h-1.72V82.24z M360.61,79.95v-1.43h-3.72c-2,0-3.04,0.61-3.04,1.93
				c0,1.32,1.07,2.18,2.75,2.18C358.61,82.63,360.15,81.61,360.61,79.95z"/>
			<path class="st1" d="M377.28,84.08h-1.77v-2.56c-0.88,1.68-2.52,2.65-4.65,2.65c-3.4,0-5.76-2.52-5.76-6.08
				c0-3.59,2.36-6.06,5.74-6.06c2.13,0,3.79,0.98,4.67,2.68v-7.46h1.77V84.08z M375.51,78.14c0-2.61-1.79-4.49-4.31-4.49
				c-2.54,0-4.33,1.88-4.33,4.49c0,2.59,1.79,4.45,4.33,4.45C373.72,82.58,375.51,80.72,375.51,78.14z"/>
			<path class="st1" d="M383.72,68.7c0,0.7-0.5,1.23-1.16,1.23c-0.66,0-1.16-0.52-1.16-1.23s0.5-1.23,1.16-1.23
				C383.22,67.47,383.72,67.99,383.72,68.7z M381.7,84.08V72.12h1.75v11.96H381.7z"/>
			<path class="st1" d="M397.08,73.85l-0.98,1.25c-0.91-0.86-2.11-1.38-3.56-1.38c-2.47,0-4.24,1.79-4.24,4.4
				c0,2.61,1.77,4.42,4.24,4.42c1.57,0,2.86-0.55,3.7-1.54l1.02,1.09c-1.07,1.29-2.72,2.06-4.79,2.06c-3.47,0-5.92-2.47-5.92-6.04
				c0-3.56,2.47-6.04,5.92-6.04C394.4,72.06,395.99,72.71,397.08,73.85z"/>
			<path class="st1" d="M402.5,68.7c0,0.7-0.5,1.23-1.16,1.23c-0.66,0-1.16-0.52-1.16-1.23s0.5-1.23,1.16-1.23
				C402,67.47,402.5,67.99,402.5,68.7z M400.48,84.08V72.12h1.75v11.96H400.48z"/>
			<path class="st1" d="M417.45,78.09c0,3.59-2.52,6.06-6.06,6.06c-3.54,0-6.06-2.47-6.06-6.06c0-3.56,2.52-6.01,6.06-6.01
				C414.93,72.08,417.45,74.53,417.45,78.09z M407.11,78.11c0,2.63,1.79,4.45,4.29,4.45c2.5,0,4.29-1.82,4.29-4.45
				c0-2.61-1.79-4.42-4.29-4.42C408.9,73.69,407.11,75.51,407.11,78.11z"/>
			<path class="st1" d="M431.5,76.71v7.37h-1.77v-6.9c0-2.11-1.27-3.36-3.38-3.36c-2.36,0.02-3.81,1.57-4.02,3.83v6.42h-1.77V72.12
				h1.77v2.63c0.84-1.82,2.45-2.68,4.63-2.7C429.82,72.06,431.5,73.83,431.5,76.71z"/>
			<path class="st1" d="M442.86,82.24c-0.95,1.29-2.47,1.93-4.38,1.93c-2.47,0-4.06-1.59-4.06-3.65c0-2.09,1.66-3.4,4.47-3.43h3.93
				v-0.7c0-1.75-1.09-2.79-3.2-2.79c-1.32,0-2.54,0.5-3.79,1.36l-0.75-1.29c1.54-1.02,2.84-1.61,4.88-1.61
				c2.95,0,4.58,1.57,4.61,4.13l0.02,7.9h-1.72V82.24z M442.84,79.95v-1.43h-3.72c-2,0-3.04,0.61-3.04,1.93
				c0,1.32,1.07,2.18,2.75,2.18C440.84,82.63,442.38,81.61,442.84,79.95z"/>
			<path class="st1" d="M448.64,84.08V67.25h1.77v16.84H448.64z"/>
			<path class="st1" d="M464.86,85.78c-0.75,1.84-2,2.79-3.59,2.79c-1,0-1.79-0.3-2.52-0.88l0.75-1.47
				c0.54,0.39,1.09,0.57,1.68,0.57c0.93,0,1.7-0.57,2.18-1.68l0.5-1.11l-4.95-11.87h1.86l3.97,9.87l3.79-9.87h1.82L464.86,85.78z"/>
		</g>
		<g>
			<path class="st1" d="M232.39,94.52v14.14h-1.82V94.52h-5.17v-1.75h12.18v1.75H232.39z"/>
			<path class="st1" d="M248.59,103.37h-9.76c0.32,2.34,2.02,3.81,4.33,3.81c1.47,0,2.77-0.52,3.7-1.5l0.98,1.04
				c-1.13,1.27-2.81,2-4.81,2c-3.52,0-5.94-2.47-5.94-6.04c0-3.56,2.45-6.04,5.92-6.04C246.87,96.63,248.77,99.31,248.59,103.37z
				 M247,101.92c-0.11-2.29-1.66-3.74-3.99-3.74c-2.27,0-3.9,1.47-4.17,3.74H247z"/>
			<path class="st1" d="M253.4,99.35c0.79-1.75,2.27-2.7,4.29-2.72v1.79c-2.52-0.05-4.08,1.52-4.29,3.88v6.35h-1.77V96.7h1.77V99.35
				z"/>
			<path class="st1" d="M266.92,106.82c-0.95,1.29-2.47,1.93-4.38,1.93c-2.47,0-4.06-1.59-4.06-3.65c0-2.09,1.66-3.4,4.47-3.43h3.92
				v-0.7c0-1.75-1.09-2.79-3.2-2.79c-1.32,0-2.54,0.5-3.79,1.36l-0.75-1.29c1.54-1.02,2.84-1.61,4.88-1.61
				c2.95,0,4.58,1.57,4.61,4.13l0.02,7.9h-1.72V106.82z M266.9,104.53v-1.43h-3.72c-2,0-3.04,0.61-3.04,1.93s1.07,2.18,2.75,2.18
				C264.9,107.21,266.44,106.18,266.9,104.53z"/>
			<path class="st1" d="M284.82,102.71c0,3.54-2.31,6.01-5.69,6.01c-2.13,0-3.77-0.98-4.65-2.63v6.97h-1.77V96.7h1.77v2.59
				c0.88-1.68,2.52-2.65,4.61-2.65C282.46,96.63,284.82,99.13,284.82,102.71z M283.03,102.67c0-2.56-1.77-4.45-4.27-4.45
				c-2.52,0-4.29,1.86-4.29,4.45c0,2.61,1.77,4.45,4.29,4.45C281.26,107.11,283.03,105.25,283.03,102.67z"/>
			<path class="st1" d="M289.94,93.27c0,0.7-0.5,1.23-1.16,1.23c-0.66,0-1.16-0.52-1.16-1.23c0-0.7,0.5-1.23,1.16-1.23
				C289.44,92.05,289.94,92.57,289.94,93.27z M287.92,108.66V96.7h1.75v11.96H287.92z"/>
			<path class="st1" d="M301.4,106.82c-0.95,1.29-2.47,1.93-4.38,1.93c-2.47,0-4.06-1.59-4.06-3.65c0-2.09,1.66-3.4,4.47-3.43h3.92
				v-0.7c0-1.75-1.09-2.79-3.2-2.79c-1.32,0-2.54,0.5-3.79,1.36l-0.75-1.29c1.54-1.02,2.84-1.61,4.88-1.61
				c2.95,0,4.58,1.57,4.61,4.13l0.02,7.9h-1.72V106.82z M301.38,104.53v-1.43h-3.72c-2,0-3.04,0.61-3.04,1.93s1.07,2.18,2.75,2.18
				C299.38,107.21,300.92,106.18,301.38,104.53z"/>
			<path class="st1" d="M314.06,97.72l-0.68,1.41c-0.93-0.59-2.13-0.98-3.24-0.98c-1.34,0-2.36,0.48-2.36,1.59
				c0,2.65,6.67,1.29,6.67,5.58c0,2.36-2.09,3.4-4.38,3.4c-1.7,0-3.45-0.59-4.58-1.68l0.68-1.34c1.02,0.95,2.56,1.52,3.97,1.52
				c1.41,0,2.54-0.52,2.56-1.7c0.07-2.88-6.63-1.41-6.6-5.65c0-2.29,1.97-3.24,4.15-3.24C311.68,96.63,313.06,97.04,314.06,97.72z"
				/>
			<path class="st1" d="M336.4,95.04l-1.09,1.38c-1.23-1.25-2.95-2-4.7-2c-3.59,0-6.47,2.77-6.47,6.26c0,3.47,2.88,6.26,6.47,6.26
				c1.75,0,3.45-0.73,4.7-1.91l1.11,1.25c-1.57,1.47-3.7,2.45-5.9,2.45c-4.58,0-8.21-3.56-8.21-8.05c0-4.45,3.68-7.96,8.28-7.96
				C332.77,92.73,334.88,93.61,336.4,95.04z"/>
			<path class="st1" d="M349.97,102.67c0,3.59-2.52,6.06-6.06,6.06c-3.54,0-6.06-2.47-6.06-6.06c0-3.56,2.52-6.01,6.06-6.01
				C347.45,96.65,349.97,99.1,349.97,102.67z M339.62,102.69c0,2.63,1.79,4.45,4.29,4.45c2.5,0,4.29-1.82,4.29-4.45
				c0-2.61-1.79-4.42-4.29-4.42C341.41,98.27,339.62,100.08,339.62,102.69z"/>
			<path class="st1" d="M372.84,101.28v7.37h-1.77v-6.9c0-2.13-1.25-3.38-3.31-3.38c-2.47,0.07-3.9,1.84-3.9,4.4v5.88h-1.79v-6.9
				c0-2.13-1.22-3.38-3.31-3.38c-2.45,0.07-3.92,1.84-3.92,4.4v5.88h-1.75V96.7h1.75v2.7c0.79-1.86,2.4-2.75,4.56-2.77
				c2.25,0,3.79,1.16,4.29,3.13c0.75-2.11,2.43-3.11,4.72-3.13C371.18,96.63,372.84,98.4,372.84,101.28z"/>
			<path class="st1" d="M388.99,102.71c0,3.54-2.31,6.01-5.69,6.01c-2.13,0-3.77-0.98-4.65-2.63v6.97h-1.77V96.7h1.77v2.59
				c0.88-1.68,2.52-2.65,4.61-2.65C386.63,96.63,388.99,99.13,388.99,102.71z M387.19,102.67c0-2.56-1.77-4.45-4.27-4.45
				c-2.52,0-4.29,1.86-4.29,4.45c0,2.61,1.77,4.45,4.29,4.45C385.42,107.11,387.19,105.25,387.19,102.67z"/>
			<path class="st1" d="M392.2,108.66V91.82h1.77v16.84H392.2z"/>
			<path class="st1" d="M408.7,103.37h-9.76c0.32,2.34,2.02,3.81,4.33,3.81c1.47,0,2.77-0.52,3.7-1.5l0.98,1.04
				c-1.13,1.27-2.81,2-4.81,2c-3.52,0-5.94-2.47-5.94-6.04c0-3.56,2.45-6.04,5.92-6.04C406.97,96.63,408.88,99.31,408.7,103.37z
				 M407.11,101.92c-0.11-2.29-1.66-3.74-3.99-3.74c-2.27,0-3.9,1.47-4.17,3.74H407.11z"/>
			<path class="st1" d="M431.5,101.28v7.37h-1.77v-6.9c0-2.13-1.25-3.38-3.31-3.38c-2.47,0.07-3.9,1.84-3.9,4.4v5.88h-1.79v-6.9
				c0-2.13-1.22-3.38-3.31-3.38c-2.45,0.07-3.92,1.84-3.92,4.4v5.88h-1.75V96.7h1.75v2.7c0.79-1.86,2.4-2.75,4.56-2.77
				c2.25,0,3.79,1.16,4.29,3.13c0.75-2.11,2.43-3.11,4.72-3.13C429.84,96.63,431.5,98.4,431.5,101.28z"/>
			<path class="st1" d="M445.72,103.37h-9.76c0.32,2.34,2.02,3.81,4.33,3.81c1.47,0,2.77-0.52,3.7-1.5l0.98,1.04
				c-1.13,1.27-2.81,2-4.81,2c-3.52,0-5.94-2.47-5.94-6.04c0-3.56,2.45-6.04,5.92-6.04C444,96.63,445.9,99.31,445.72,103.37z
				 M444.13,101.92c-0.11-2.29-1.66-3.74-3.99-3.74c-2.27,0-3.9,1.47-4.17,3.74H444.13z"/>
			<path class="st1" d="M459.69,101.28v7.37h-1.77v-6.9c0-2.11-1.27-3.36-3.38-3.36c-2.36,0.02-3.81,1.57-4.02,3.83v6.42h-1.77V96.7
				h1.77v2.63c0.84-1.82,2.45-2.68,4.63-2.7C458.02,96.63,459.69,98.4,459.69,101.28z"/>
			<path class="st1" d="M469.81,107.84c-0.84,0.57-1.75,0.88-2.7,0.91c-1.75,0-3.04-1.04-3.04-3.4v-6.83h-1.72v-1.43h1.72v-3.15
				h1.75v3.15l3.79-0.02v1.45h-3.79v6.51c0,1.45,0.57,2,1.59,2c0.61,0,1.25-0.2,1.91-0.61L469.81,107.84z"/>
			<path class="st1" d="M479.91,106.82c-0.95,1.29-2.47,1.93-4.38,1.93c-2.47,0-4.06-1.59-4.06-3.65c0-2.09,1.66-3.4,4.47-3.43h3.93
				v-0.7c0-1.75-1.09-2.79-3.2-2.79c-1.32,0-2.54,0.5-3.79,1.36l-0.75-1.29c1.54-1.02,2.84-1.61,4.88-1.61
				c2.95,0,4.58,1.57,4.61,4.13l0.02,7.9h-1.72V106.82z M479.88,104.53v-1.43h-3.72c-2,0-3.04,0.61-3.04,1.93s1.07,2.18,2.75,2.18
				C477.89,107.21,479.43,106.18,479.88,104.53z"/>
			<path class="st1" d="M487.34,99.35c0.79-1.75,2.27-2.7,4.29-2.72v1.79c-2.52-0.05-4.08,1.52-4.29,3.88v6.35h-1.77V96.7h1.77
				V99.35z"/>
			<path class="st1" d="M496.03,93.27c0,0.7-0.5,1.23-1.16,1.23c-0.66,0-1.16-0.52-1.16-1.23c0-0.7,0.5-1.23,1.16-1.23
				C495.53,92.05,496.03,92.57,496.03,93.27z M494.01,108.66V96.7h1.75v11.96H494.01z"/>
			<path class="st1" d="M507.49,106.82c-0.95,1.29-2.47,1.93-4.38,1.93c-2.47,0-4.06-1.59-4.06-3.65c0-2.09,1.66-3.4,4.47-3.43h3.92
				v-0.7c0-1.75-1.09-2.79-3.2-2.79c-1.32,0-2.54,0.5-3.79,1.36l-0.75-1.29c1.54-1.02,2.84-1.61,4.88-1.61
				c2.95,0,4.58,1.57,4.61,4.13l0.02,7.9h-1.72V106.82z M507.47,104.53v-1.43h-3.72c-2,0-3.04,0.61-3.04,1.93s1.07,2.18,2.75,2.18
				C505.47,107.21,507.01,106.18,507.47,104.53z"/>
			<path class="st1" d="M520.15,97.72l-0.68,1.41c-0.93-0.59-2.13-0.98-3.24-0.98c-1.34,0-2.36,0.48-2.36,1.59
				c0,2.65,6.67,1.29,6.67,5.58c0,2.36-2.09,3.4-4.38,3.4c-1.7,0-3.45-0.59-4.58-1.68l0.68-1.34c1.02,0.95,2.56,1.52,3.97,1.52
				c1.41,0,2.54-0.52,2.56-1.7c0.07-2.88-6.63-1.41-6.6-5.65c0-2.29,1.97-3.24,4.15-3.24C517.77,96.63,519.15,97.04,520.15,97.72z"
				/>
		</g>
	</g>
	<path class="st2" d="M148.39,98.45c-1.74-1.31-3.47-2.36-5.28-3.22c-3.49-1.65-7.15-2.36-10.68-3.04
		c-2.44-0.47-4.97-0.96-7.43-1.76c-3.68-1.19-7.16-3.39-10.06-6.34c-0.09-0.09-0.23-0.13-0.35-0.07c-0.12,0.05-0.2,0.16-0.19,0.29
		c0.04,3.98,0.75,11.25,5.05,15.19c4.84,4.42,11.5,6.3,17.94,8.11c2.28,0.64,4.63,1.3,6.86,2.07c0.03,0.01,0.07,0.02,0.1,0.02
		c0.13,0,0.25-0.08,0.29-0.2c0.43-1.12,0.87-2.34,1.36-3.75c0.24-0.69,0.47-1.39,0.7-2.08c0.16-0.47,0.31-0.94,0.47-1.41
		c0.44-1.3,0.87-2.42,1.31-3.42C148.55,98.69,148.51,98.54,148.39,98.45z"/>
	<path class="st3" d="M181.33,79.98c-0.04-0.2-0.07-0.42-0.11-0.65c-0.19-1.24-0.43-2.79-1.48-3.53c-0.85-0.6-2.37-0.31-3.1,0.52
		c-1.04,1.19-0.76,3.15-0.54,4.72c0.04,0.32,0.09,0.62,0.11,0.89c0.2,1.98,0.37,3.77,0.46,5.57c0.17,3.22-0.55,6.58-1.99,9.22
		c-0.14,0.26-0.3,0.52-0.46,0.77c0.03-0.1,0.07-0.2,0.1-0.29c1.29-4.08,0.94-9.09-0.96-13.74c-0.44-1.07-1.34-2.21-2.55-2.21
		c-0.17,0-0.35,0.02-0.52,0.07c-0.47,0.13-0.84,0.41-1.09,0.84c-0.5,0.87-0.4,2.2-0.14,3.15c0.42,1.56,0.71,2.93,0.9,4.21
		c0.65,4.6-0.42,8.71-3.02,11.57c-2.59,2.85-5.9,5.02-9.1,7.11c-0.8,0.53-1.61,1.05-2.39,1.58c-1.69,1.14-3.69,2.48-5.72,3.71h0
		c-0.15,0.09-0.2,0.28-0.11,0.43c0.09,0.15,0.28,0.19,0.43,0.11c0.01,0,0.06-0.02,0.21-0.02c0.19,0,0.42,0.03,0.62,0.05
		c0.17,0.02,0.32,0.03,0.42,0.03h0.23c0.39,0,0.79,0,1.18-0.02c0.93-0.03,1.86-0.1,2.75-0.21c5.85-0.7,11.19-2.99,15.86-6.8
		c2.89-2.36,5.24-5.37,7.63-9.79c0.67-1.25,1.21-2.43,1.64-3.61C182.04,89.72,182.29,85.12,181.33,79.98z"/>
	<path class="st4" d="M148.59,105.55c-2.63-1.03-5.34-2.1-6.74-5.02c-1.18-2.46-1.33-5.75-0.44-9.8c0.22-1,0.55-2.04,0.86-3.04
		c0.88-2.8,1.8-5.7,0.75-8.67l-0.14-0.4l-0.34,0.25c-8.06,5.8-13.27,19.66-13.27,35.31c0,0.31,0.01,0.62,0.02,0.92l0.01,0.17
		c0,0.06-0.01,0.12-0.01,0.17c-0.01,0.09-0.02,0.18-0.02,0.27c0,5.09,2.94,9.22,6.56,9.22h0.04c0.2,0,0.38-0.04,0.56-0.07l0.2-0.04
		c0.06-0.01,0.12-0.02,0.18-0.02c0.13-0.01,0.26-0.03,0.38-0.07c0.17-0.05,0.33-0.13,0.49-0.21l0.35-0.16
		c0.14-0.06,0.29-0.12,0.42-0.2c0.23-0.14,0.43-0.31,0.62-0.47l0.11-0.1c0.04-0.04,0.09-0.07,0.13-0.1c0.08-0.06,0.17-0.13,0.25-0.2
		c0.25-0.24,0.47-0.52,0.69-0.81l0.1-0.13c0.06-0.08,0.12-0.15,0.22-0.28c0.03-0.04,0.07-0.08,0.1-0.13
		c0.17-0.27,0.32-0.56,0.46-0.85l0.1-0.19c0.02-0.04,0.04-0.07,0.06-0.11c0.57-1.19,1-2.53,1.41-3.82l0.29-0.9
		c0.72-2.21,1.57-3.84,2.64-5.11c1.19-1.27,2.41-2.06,3.62-2.35c0.77-0.18,1.44-0.18,2.21,0c1.14,0.27,2.3,1,3.44,2.17l0.47-0.42
		C153.7,108.28,151.4,106.66,148.59,105.55z"/>
	<path class="st0" d="M171.47,115.29l0.01-0.19c0.01-0.31,0.02-0.61,0.02-0.92c0-20.98-9.47-38.05-21.11-38.05
		c-2.68,0-5.32,0.92-7.85,2.74L142.35,79l0.08,0.22c0.97,2.78,0.09,5.57-0.76,8.27c-0.32,1.02-0.65,2.07-0.88,3.1
		c-0.91,4.19-0.75,7.62,0.49,10.21c1.5,3.13,4.34,4.25,7.07,5.33c2.72,1.07,4.92,2.63,6.57,4.65l0.1,0.1
		c0.03,0.03,0.06,0.05,0.1,0.12c0.02,0.04,0.05,0.08,0.08,0.12c0,0,0,0,0.01,0.01l0.05,0.06c1.02,1.27,1.83,2.87,2.49,4.89l0.29,0.9
		c0.41,1.29,0.84,2.63,1.41,3.82c0.02,0.04,0.04,0.08,0.06,0.11l0.1,0.19c0.15,0.29,0.29,0.58,0.46,0.85
		c0.03,0.05,0.07,0.09,0.14,0.18c0.06,0.08,0.12,0.16,0.18,0.23l0.12,0.15c0.21,0.27,0.43,0.55,0.67,0.79
		c0.08,0.08,0.16,0.14,0.25,0.2c0.04,0.03,0.09,0.07,0.13,0.1l0.11,0.09c0.2,0.17,0.4,0.34,0.62,0.47c0.14,0.08,0.28,0.15,0.43,0.2
		l0.35,0.16c0.16,0.08,0.32,0.16,0.49,0.21c0.12,0.04,0.25,0.05,0.38,0.07c0.06,0.01,0.12,0.01,0.18,0.02l0.19,0.04
		c0.18,0.04,0.36,0.07,0.56,0.07h0.04c3.62,0,6.56-4.14,6.56-9.22c0-0.09-0.01-0.18-0.02-0.27
		C171.47,115.38,171.47,115.33,171.47,115.29z M155.46,110.93L155.46,110.93L155.46,110.93L155.46,110.93z"/>
	<path class="st5" d="M144.63,109.24c-0.04-0.08-0.1-0.14-0.18-0.16c-2.25-0.77-4.61-1.44-6.9-2.08
		c-6.37-1.79-12.96-3.65-17.68-7.97c-4.13-3.77-4.81-10.85-4.85-14.73c0-0.08-0.03-0.16-0.09-0.22c-0.04-0.04-0.09-0.08-0.13-0.12
		c-0.03-0.03-0.07-0.06-0.1-0.09c-0.12-0.12-0.32-0.13-0.45-0.01c-0.1,0.1-0.12,0.25-0.06,0.37c0.01,0.19-0.16,0.83-0.21,1.04
		c-0.03,0.12-0.06,0.22-0.06,0.27c-0.19,0.99-0.4,1.98-0.6,2.97c-0.69,3.32-1.4,6.75-1.55,10.24c-0.22,4.86,0.82,9.59,2.83,12.98
		c2.57,4.32,6.64,7.94,12.08,10.74c0.04,0.02,0.09,0.03,0.13,0.03c0.29,0.01,0.57,0.02,0.86,0.02c4.9,0,9.25-1.54,11.92-4.23
		c0.71-0.71,1.38-1.54,1.98-2.46c1-1.53,1.88-3.3,2.83-5.73c0.08-0.21,0.16-0.42,0.24-0.63
		C144.67,109.4,144.67,109.32,144.63,109.24z"/>
	<path class="st6" d="M189.03,77.15l-0.02-0.16c-0.22-1.45-0.48-3.1-1.53-4.33c-0.57-0.66-1.38-1.05-2.16-1.05
		c-0.66,0-1.23,0.27-1.66,0.78c-1.04,1.23-1.01,3.07-0.99,4.69c0.01,0.41,0.01,0.81,0,1.18c-0.17,4.72-0.67,8.23-1.62,11.4
		c-0.39,1.32-0.87,2.6-1.4,3.8c-0.59,1.31-1.25,2.56-1.97,3.7c-2.61,4.17-5.89,7.64-9.48,10.05c-1.02,0.68-2.12,1.3-3.26,1.84
		c-2.09,0.99-3.87,1.65-5.6,2.09c-0.53,0.13-1.16,0.28-1.78,0.33c-0.16,0.01-0.33,0.02-0.49,0.02c-0.93,0-1.64-0.26-2.16-0.8
		c-0.95-0.99-0.82-2.37-0.54-3.7c0.1-0.46,0.21-0.92,0.32-1.38l0.08-0.31c0.74-3.02,1.73-5.96,2.95-8.73l0.1-0.23
		c0.57-1.27,1.51-3.4,0.14-4.64c-0.42-0.38-0.98-0.58-1.65-0.58c-1.19,0-2.46,0.62-3.11,0.99c-2.19,1.25-3.87,3.3-5.28,6.48
		c-0.45,1.02-0.89,2.15-1.33,3.47c-0.16,0.47-0.32,0.94-0.47,1.42c-0.23,0.69-0.46,1.39-0.7,2.08c-0.49,1.4-0.93,2.62-1.35,3.73
		c-0.08,0.21-0.16,0.41-0.24,0.62c-0.94,2.39-1.8,4.12-2.77,5.61c-0.58,0.88-1.21,1.68-1.89,2.36c-2.55,2.57-6.74,4.04-11.48,4.04
		c-0.28,0-0.56,0-0.84-0.02c-0.18-0.01-0.28,0.09-0.32,0.24c-0.04,0.14,0.03,0.29,0.16,0.36c1.08,0.55,1.99,0.99,2.86,1.36
		c0.7,0.3,1.41,0.56,2.09,0.81c0.59,0.22,1.19,0.42,1.79,0.59c0.29,0.09,0.58,0.18,0.88,0.26c0.76,0.2,1.53,0.39,2.29,0.55
		l0.21,0.04c0.19,0.04,0.38,0.08,0.57,0.11c0.27,0.05,0.54,0.1,0.8,0.15l0.22,0.04c1.28,0.23,2.66,0.46,4.35,0.71
		c2.37,0.35,4.83,0.55,7.33,0.57l0.51,0c1.95,0,3.85-0.11,5.63-0.33c0.32-0.04,0.64-0.09,0.96-0.15l0.74-0.12
		c0.18-0.03,0.36-0.05,0.54-0.09c3.71-0.66,7.11-1.78,10.12-3.31c8.35-4.27,15.05-11.66,18.38-20.26c0.95-2.46,1.66-4.89,2.1-7.23
		c0.52-2.76,0.79-5.53,0.82-8.24C189.89,84.48,189.62,80.95,189.03,77.15z"/>
	<g>
		<path class="st7" d="M150.33,56.7c-4.67,0-8.46,3.8-8.46,8.46c0,4.67,3.8,8.46,8.46,8.46c4.67,0,8.46-3.8,8.46-8.46
			C158.79,60.5,155,56.7,150.33,56.7z"/>
	</g>
	<path class="st8" d="M121.11,68.32c4.57-0.3,8.98,0.48,12.97,1.78c3.65,1.18,6.96,2.79,9.74,4.41l0.12-0.08
		c-2.93-2.03-4.86-5.42-4.86-9.25c0-0.78,0.08-1.55,0.23-2.29c-2.6-1.9-5.52-3.54-8.76-4.66c-0.71-0.24-1.42-0.46-2.13-0.65
		c-5.17-1.38-10.43-1.34-15.14-0.68c-9.31,1.29-16.44,5-16.44,5s2.64,5.83,7.83,11.89c4.08-2.43,8.92-4.5,14.23-5.24
		C119.63,68.45,120.37,68.37,121.11,68.32z"/>
	<path class="st9" d="M128.43,57.57c0.71,0.19,1.42,0.4,2.13,0.65c3.24,1.12,6.16,2.76,8.76,4.66c0.29-1.41,0.85-2.71,1.61-3.87
		c-0.01-0.14-0.02-0.28-0.03-0.43c-0.11-2.55,0.11-5.03,0.57-7.42c-4.24-3.28-9.1-5.28-13.7-6.51c-9.08-2.41-17.09-1.76-17.09-1.76
		s0.17,6.4,2.61,14C118,56.23,123.25,56.19,128.43,57.57z"/>
	<path class="st10" d="M145.87,38.98c-7.44-5.74-15.08-8.25-15.08-8.25s-2.33,5.96-3.03,13.91c4.59,1.23,9.46,3.23,13.7,6.51
		C142.32,46.66,144.01,42.51,145.87,38.98z"/>
	<path class="st8" d="M169.86,57.32c0.2,4.58-0.68,8.97-2.06,12.94c-1.23,3.53-2.85,6.71-4.48,9.4c0.41,0.44,0.81,0.9,1.2,1.39
		c0.99-0.47,2.02-0.92,3.08-1.33c0.54-0.53,1.21-0.9,1.97-1.11c0.41-0.11,0.83-0.17,1.25-0.17c0.18,0,0.36,0.01,0.53,0.03
		c0.49-0.13,0.99-0.26,1.49-0.37c0.11-0.12,0.22-0.26,0.33-0.38c0.14-1.13,0.51-2.26,1.37-3.24c0.58-0.66,1.34-1.16,2.19-1.46
		c1.18-1.86,2.22-3.87,3.02-6.03c0.26-0.7,0.49-1.41,0.7-2.11c1.49-5.14,1.57-10.4,1.02-15.12c-1.09-9.33-4.65-16.55-4.65-16.55
		s-5.88,2.51-12.06,7.58c2.34,4.13,4.31,9.01,4.93,14.34C169.77,55.84,169.83,56.58,169.86,57.32z"/>
	<path class="st9" d="M173.18,77.72c-0.11,0.13-0.22,0.26-0.33,0.38c0.1-0.02,0.2-0.04,0.3-0.06
		C173.15,77.94,173.17,77.83,173.18,77.72z"/>
	<path class="st9" d="M180.45,64.87c-0.2,0.71-0.43,1.41-0.7,2.11c-0.8,2.16-1.83,4.17-3.02,6.03c0.6-0.21,1.24-0.33,1.89-0.33
		c0.58,0,1.13,0.1,1.64,0.28c0.24-0.83,0.63-1.64,1.25-2.37c0.96-1.14,2.31-1.77,3.79-1.77c1.61,0,3.17,0.73,4.28,2.01
		c0.33,0.39,0.6,0.8,0.84,1.21c1.27-2.5,2.24-5.07,2.96-7.56c2.61-9.03,2.13-17.05,2.13-17.05s-6.39,0.03-14.05,2.31
		C182.01,54.47,181.94,59.73,180.45,64.87z"/>
	<path class="st10" d="M191.77,76.57l0.02,0.16c0.16,1.01,0.29,2,0.4,2.98c2.32,0.87,4.49,1.91,6.46,3.01
		c5.91-7.31,8.58-14.9,8.58-14.9s-5.92-2.45-13.85-3.32c-0.72,2.5-1.69,5.06-2.96,7.56C191.3,73.6,191.57,75.27,191.77,76.57z"/>
	<path class="st11" d="M110.6,87.89c0.2-0.96,0.4-1.92,0.58-2.88c0.01-0.04,0.04-0.2,0.09-0.4c0.04-0.17,0.08-0.3,0.1-0.4
		c-0.04-0.87,0.29-1.73,0.95-2.37c0.6-0.56,1.36-0.86,2.15-0.86c0.81,0,1.6,0.32,2.18,0.89c0.07,0.06,0.14,0.13,0.21,0.2
		c0.01,0.01,0.02,0.01,0.02,0.02c2.63,2.67,5.71,4.62,8.97,5.68c1.8,0.58,3.69,1,5.56,1.37c2.03-4.53,4.63-8.32,7.66-11.05
		l-0.05-0.13l1.88-1.36c0,0,0,0,0,0l2.91-2.1c-2.78-1.62-6.08-3.23-9.74-4.41c-4-1.3-8.4-2.08-12.97-1.78
		c-0.75,0.05-1.48,0.13-2.21,0.22c-5.31,0.74-10.14,2.82-14.23,5.24c-8.07,4.8-13.21,10.99-13.21,10.99s0.77,0.72,2.16,1.8
		c2.04,1.6,5.42,4,9.67,6.13c1.85,0.92,3.85,1.79,5.99,2.53c0.32-2.5,0.82-4.92,1.31-7.29L110.6,87.89z"/>
	<path class="st11" d="M156.43,74.61c1.05,0.45,2.08,1.03,3.06,1.71c0.28-1.73,0.51-3.62,0.62-5.62
		C159.22,72.28,157.95,73.62,156.43,74.61z"/>
	<path class="st11" d="M169.86,57.32c-0.03-0.75-0.1-1.48-0.19-2.21c-0.62-5.32-2.59-10.2-4.93-14.34
		c-4.63-8.18-10.7-13.45-10.7-13.45s-4.45,4.59-8.18,11.65c-1.87,3.53-3.55,7.68-4.41,12.18c-0.46,2.39-0.68,4.87-0.57,7.42
		c0.01,0.14,0.02,0.29,0.03,0.43c1.14-1.73,2.75-3.13,4.64-4.02c1.45-0.68,3.06-1.07,4.76-1.07c3.52,0,6.66,1.62,8.72,4.16
		c1.58,1.94,2.53,4.4,2.53,7.09c0,2.01-0.53,3.9-1.46,5.53c-0.12,1.99-0.34,3.89-0.62,5.62c1.34,0.92,2.62,2.05,3.83,3.35
		c1.63-2.7,3.26-5.88,4.48-9.4C169.19,66.29,170.06,61.9,169.86,57.32z"/>
	<path class="st11" d="M166.8,80.76c0.23-0.39,0.5-0.74,0.81-1.04c-1.06,0.41-2.09,0.86-3.08,1.33c0.54,0.67,1.07,1.38,1.57,2.12
		C166.15,82.38,166.35,81.54,166.8,80.76z"/>
	<path class="st11" d="M172.85,78.11c-0.5,0.11-1,0.24-1.49,0.37c0.32,0.04,0.63,0.11,0.94,0.21
		C172.48,78.5,172.66,78.31,172.85,78.11z"/>
	<path class="st11" d="M173.11,79.04c-0.01-0.33,0-0.66,0.03-1c-0.1,0.02-0.2,0.04-0.3,0.06c-0.18,0.2-0.37,0.39-0.55,0.59
		C172.58,78.79,172.85,78.9,173.11,79.04z"/>
	<path class="st11" d="M198.65,82.71c-1.97-1.1-4.14-2.13-6.46-3.01c0.33,2.84,0.48,5.57,0.46,8.26c0,0.29-0.02,0.59-0.03,0.89
		c-0.07,2.59-0.34,5.23-0.84,7.85c-0.47,2.51-1.23,5.11-2.24,7.72c-0.02,0.05-0.04,0.09-0.06,0.14c2.49-0.82,4.83-1.87,6.97-3.02
		c8.27-4.44,13.68-10.4,13.68-10.4S205.63,86.59,198.65,82.71z"/>
</g>
</svg>
