<?xml version="1.0" encoding="utf-8"?>
<!-- Generator: Adobe Illustrator 25.2.3, SVG Export Plug-In . SVG Version: 6.00 Build 0)  -->
<svg version="1.1" id="Layer_1" xmlns="http://www.w3.org/2000/svg" xmlns:xlink="http://www.w3.org/1999/xlink" x="0px" y="0px"
	 viewBox="0 0 612 154" style="enable-background:new 0 0 612 154;" xml:space="preserve">
<style type="text/css">
	.st0{fill:#FFFFFF;}
</style>
<g>
	<g>
		<g>
			<path class="st0" d="M102.7,98.68c0.02-0.19,0.05-0.38,0.07-0.57C102.75,98.31,102.72,98.49,102.7,98.68z"/>
			<path class="st0" d="M102.52,101.67c0-0.68,0.02-1.28,0.06-1.84C102.55,100.39,102.52,100.99,102.52,101.67z"/>
			<path class="st0" d="M103.04,96.59c-0.02,0.1-0.04,0.2-0.06,0.3C103,96.79,103.02,96.69,103.04,96.59
				C103.04,96.59,103.04,96.59,103.04,96.59z"/>
			<path class="st0" d="M102.59,99.83c0.02-0.28,0.05-0.57,0.08-0.85C102.64,99.26,102.61,99.55,102.59,99.83z"/>
			<path class="st0" d="M102.83,97.77c0.03-0.17,0.05-0.34,0.08-0.51C102.88,97.42,102.85,97.6,102.83,97.77z"/>
			<path class="st0" d="M91.88,101.51c-0.02,0.25-0.03,0.5-0.05,0.75C91.84,102,91.85,101.75,91.88,101.51z"/>
			<path class="st0" d="M95.56,89.39c-0.05,0.08-0.09,0.15-0.14,0.23C95.47,89.54,95.52,89.46,95.56,89.39z"/>
			<path class="st0" d="M95.91,88.82c-0.05,0.08-0.1,0.16-0.14,0.23C95.81,88.97,95.86,88.9,95.91,88.82z"/>
			<path class="st0" d="M95.23,89.98c-0.04,0.07-0.07,0.13-0.11,0.2C95.15,90.11,95.19,90.05,95.23,89.98z"/>
			<path class="st0" d="M93.03,95.28c-0.06,0.19-0.1,0.38-0.15,0.57C92.93,95.66,92.98,95.46,93.03,95.28z"/>
			<path class="st0" d="M93.5,93.84c-0.05,0.15-0.1,0.31-0.15,0.46C93.4,94.14,93.45,93.99,93.5,93.84z"/>
			<path class="st0" d="M92.06,99.88c-0.03,0.23-0.05,0.48-0.08,0.71C92,100.36,92.03,100.12,92.06,99.88z"/>
			<path class="st0" d="M92.64,96.76c-0.05,0.21-0.09,0.42-0.14,0.64C92.55,97.19,92.59,96.97,92.64,96.76z"/>
			<path class="st0" d="M91.77,103.17c-0.01,0.26-0.01,0.52-0.02,0.78C91.75,103.69,91.75,103.43,91.77,103.17z"/>
			<path class="st0" d="M92.31,98.3c-0.04,0.22-0.07,0.45-0.11,0.68C92.24,98.75,92.27,98.52,92.31,98.3z"/>
			<path class="st0" d="M139.84,59.82c0.05-0.17,0.1-0.34,0.15-0.51C139.94,59.47,139.89,59.65,139.84,59.82z"/>
			<path class="st0" d="M140.73,50c-0.01-0.11-0.02-0.23-0.04-0.34C140.7,49.77,140.71,49.89,140.73,50z"/>
			<path class="st0" d="M138.51,63.53c0.08-0.18,0.16-0.37,0.24-0.55C138.67,63.16,138.59,63.35,138.51,63.53z"/>
			<path class="st0" d="M139.01,62.3c0.07-0.18,0.14-0.36,0.21-0.54C139.15,61.94,139.08,62.12,139.01,62.3z"/>
			<path class="st0" d="M140.64,49.23c-0.01-0.12-0.03-0.23-0.05-0.35C140.61,49,140.63,49.11,140.64,49.23z"/>
			<path class="st0" d="M140.16,58.56c0.04-0.16,0.08-0.32,0.11-0.48C140.24,58.24,140.2,58.4,140.16,58.56z"/>
			<path class="st0" d="M140.44,57.25c0.02-0.13,0.05-0.26,0.07-0.4C140.49,56.99,140.46,57.12,140.44,57.25z"/>
			<path class="st0" d="M140.83,51.52c0-0.1-0.01-0.21-0.02-0.31C140.82,51.31,140.83,51.42,140.83,51.52z"/>
			<path class="st0" d="M139.45,61.06c0.06-0.18,0.12-0.36,0.18-0.53C139.57,60.71,139.51,60.88,139.45,61.06z"/>
			<path class="st0" d="M140.79,50.76c-0.01-0.11-0.02-0.22-0.03-0.32C140.77,50.55,140.78,50.65,140.79,50.76z"/>
			<path class="st0" d="M140.85,52.27c0-0.1-0.01-0.19-0.01-0.29C140.85,52.08,140.85,52.18,140.85,52.27z"/>
			<path class="st0" d="M139.92,45.32c-0.03-0.13-0.07-0.25-0.1-0.38C139.85,45.06,139.89,45.19,139.92,45.32z"/>
			<path class="st0" d="M138.97,42.11c-0.05-0.13-0.09-0.27-0.14-0.4C138.87,41.84,138.92,41.98,138.97,42.11z"/>
			<path class="st0" d="M139.48,43.72c-0.04-0.13-0.08-0.26-0.12-0.39C139.4,43.46,139.44,43.59,139.48,43.72z"/>
			<path class="st0" d="M140.1,46.11c-0.03-0.12-0.06-0.25-0.09-0.37C140.05,45.86,140.08,45.98,140.1,46.11z"/>
			<path class="st0" d="M139.24,42.92c-0.04-0.13-0.09-0.27-0.13-0.4C139.15,42.65,139.19,42.79,139.24,42.92z"/>
			<path class="st0" d="M139.71,44.52c-0.03-0.13-0.07-0.26-0.11-0.39C139.64,44.26,139.68,44.39,139.71,44.52z"/>
			<path class="st0" d="M137.95,64.76c0.09-0.18,0.18-0.37,0.26-0.55C138.12,64.39,138.04,64.57,137.95,64.76z"/>
			<path class="st0" d="M140.27,46.9c-0.02-0.12-0.05-0.25-0.08-0.37C140.22,46.65,140.24,46.77,140.27,46.9z"/>
			<path class="st0" d="M140.54,48.46c-0.02-0.12-0.04-0.24-0.06-0.36C140.5,48.22,140.52,48.34,140.54,48.46z"/>
			<path class="st0" d="M140.41,47.68c-0.02-0.12-0.04-0.24-0.07-0.36C140.37,47.44,140.39,47.56,140.41,47.68z"/>
			<path class="st0" d="M140.85,52.81c0,0.07,0,0.14,0,0.22C140.85,52.95,140.85,52.88,140.85,52.81z"/>
			<path class="st0" d="M146.78,66.24c0.07-0.11,0.14-0.21,0.21-0.32C146.92,66.03,146.85,66.13,146.78,66.24z"/>
			<path class="st0" d="M151.13,52.71c0.02-0.27,0.04-0.54,0.06-0.82C151.17,52.17,151.15,52.44,151.13,52.71z"/>
			<path class="st0" d="M150.69,55.99c0.04-0.24,0.08-0.49,0.12-0.74C150.77,55.5,150.74,55.75,150.69,55.99z"/>
			<path class="st0" d="M150.37,57.56c0.05-0.23,0.09-0.46,0.14-0.69C150.47,57.1,150.42,57.33,150.37,57.56z"/>
			<path class="st0" d="M149,61.97c0.06-0.14,0.11-0.29,0.16-0.43C149.1,61.68,149.05,61.83,149,61.97z"/>
			<path class="st0" d="M149.52,60.55c0.06-0.18,0.11-0.37,0.17-0.55C149.64,60.18,149.58,60.37,149.52,60.55z"/>
			<path class="st0" d="M149.98,59.08c0.06-0.21,0.11-0.42,0.16-0.63C150.09,58.66,150.04,58.87,149.98,59.08z"/>
			<path class="st0" d="M150.94,54.38c0.03-0.26,0.06-0.52,0.09-0.78C151,53.86,150.98,54.12,150.94,54.38z"/>
			<path class="st0" d="M138.88,96.87c0.18,0.05,0.36,0.1,0.54,0.15C139.24,96.97,139.06,96.92,138.88,96.87z"/>
			<path class="st0" d="M145.79,97.78c-0.06,0-0.12,0-0.17,0c0.03,0,0.05,0,0.08,0C145.73,97.78,145.76,97.78,145.79,97.78z"/>
			<path class="st0" d="M150.99,97.3c0.04-0.01,0.09-0.02,0.13-0.02C151.08,97.28,151.04,97.29,150.99,97.3z"/>
			<path class="st0" d="M144.8,97.77c0.07,0,0.15,0,0.22,0C144.95,97.77,144.87,97.77,144.8,97.77z"/>
			<path class="st0" d="M149.6,97.51c0.05-0.01,0.1-0.01,0.15-0.02C149.7,97.5,149.65,97.51,149.6,97.51z"/>
			<path class="st0" d="M148.28,97.66c0.03,0,0.06,0,0.09-0.01C148.34,97.66,148.31,97.66,148.28,97.66z"/>
			<path class="st0" d="M155.09,96.3c0.07-0.02,0.15-0.05,0.22-0.07C155.24,96.26,155.16,96.28,155.09,96.3z"/>
			<path class="st0" d="M140.31,97.21c0.16,0.03,0.31,0.07,0.47,0.1C140.62,97.29,140.46,97.25,140.31,97.21z"/>
			<path class="st0" d="M137.49,96.45c0.19,0.06,0.38,0.13,0.57,0.19C137.87,96.58,137.68,96.51,137.49,96.45z"/>
			<path class="st0" d="M153.7,96.7c0.05-0.01,0.1-0.03,0.16-0.04C153.8,96.67,153.75,96.68,153.7,96.7z"/>
			<path class="st0" d="M143.17,107.83c0.24,0.04,0.49,0.07,0.74,0.1C143.66,107.9,143.42,107.87,143.17,107.83z"/>
			<path class="st0" d="M138.49,106.77c0.22,0.07,0.45,0.13,0.67,0.19C138.94,106.89,138.71,106.83,138.49,106.77z"/>
			<path class="st0" d="M140,107.19c0.23,0.06,0.47,0.11,0.7,0.16C140.47,107.3,140.23,107.25,140,107.19z"/>
			<path class="st0" d="M144.83,108.05c0.25,0.03,0.5,0.04,0.75,0.07C145.33,108.1,145.08,108.08,144.83,108.05z"/>
			<path class="st0" d="M141.56,107.55c0.24,0.05,0.48,0.09,0.72,0.13C142.04,107.63,141.8,107.59,141.56,107.55z"/>
			<path class="st0" d="M137.03,106.27c0.2,0.08,0.42,0.14,0.62,0.21C137.44,106.42,137.23,106.35,137.03,106.27z"/>
			<path class="st0" d="M135.62,105.72c0.17,0.07,0.35,0.14,0.52,0.21C135.97,105.85,135.79,105.79,135.62,105.72z"/>
			<path class="st0" d="M93.34,68.96c-0.55,0.17-1.1,0.37-1.71,0.6c-3.58,1.42-7.04,3.75-10.27,6.92
				c-4.44,4.36-7.21,9.11-8.09,10.75c0.35,0.18,0.84,0.42,1.46,0.7c1.99,0.9,5.16,2.15,8.93,3.01c3.71,0.85,7.27,1.16,10.56,0.92
				c0.99-0.07,1.96-0.19,2.91-0.37c-0.17-0.25-0.33-0.5-0.48-0.76c-0.36-0.6-0.67-1.25-0.93-1.92c-0.86-2.19-1.27-4.83-1.15-7.44
				c0.02-0.4,0.05-0.82,0.09-1.22c0.09-0.98,0.24-2.03,0.48-3.29c0.05-0.29,0.11-0.58,0.17-0.87c0.06-0.31,0.12-0.62,0.18-0.93
				c0.19-1.01,0.39-2.06,0.66-3.08c0.1-0.36,0.22-0.78,0.48-1.16c0.62-0.9,1.9-1.25,2.96-0.82c0.18,0.08,0.34,0.16,0.48,0.26
				c0.39,0.25,0.69,0.56,0.99,0.86c0.1,0.1,0.21,0.21,0.31,0.31c0.38,0.37,0.84,0.69,1.29,1c0.42,0.29,0.86,0.56,1.3,0.79
				c0.63,0.33,1.27,0.61,1.92,0.82c0.94,0.3,1.93,0.53,2.82,0.72c0.43-0.92,0.9-1.78,1.39-2.56c0.66-1.05,1.37-2,2.12-2.83
				c-2.83-0.81-5.6-1.32-8.27-1.51C100.13,67.58,96.56,67.95,93.34,68.96z"/>
			<path class="st0" d="M129.83,49.92c-0.17-0.58-0.35-1.13-0.57-1.7c-1.34-3.63-3.6-7.13-6.69-10.42
				c-4.27-4.54-8.95-7.41-10.57-8.33c-0.76,1.43-2.68,5.32-3.93,10.3c-0.93,3.7-1.31,7.25-1.14,10.55c0.1,2.06,0.43,4.07,0.98,5.98
				c0.48,1.64,1.14,3.25,1.95,4.8c1.14,2.18,2.63,4.31,4.43,6.36l0.27-0.2l0,0c0.12-0.09,0.4-0.29,1.14-0.82
				c-0.07-0.06-0.13-0.12-0.19-0.18c-1.52-1.45-2.36-3.4-2.36-5.5c0-1.58,0.48-3.09,1.38-4.38c1.43-2.04,3.77-3.26,6.25-3.26
				c0.7,0,1.39,0.1,2.06,0.28c3.28,0.92,5.58,3.94,5.58,7.35c0,2.03-0.8,3.95-2.24,5.39c-0.11,0.11-0.22,0.21-0.33,0.31
				c0.12,0.07,0.24,0.13,0.35,0.21c0.97,0.58,1.9,1.33,2.77,2.22c0.89-2.83,1.46-5.62,1.72-8.31
				C131.07,56.75,130.77,53.17,129.83,49.92z"/>
			<path class="st0" d="M148.19,63.91c-0.82,0.02-1.63,0.08-2.42,0.18c0.5,0.67,0.85,1.46,1.08,2.47c0.09,0.42,0.15,0.81,0.2,1.14
				l0.01,0.1c0.38,2.48,0.56,4.78,0.54,7.05c-0.01,1.18-0.09,2.37-0.24,3.55c-0.08,0.66-0.18,1.32-0.31,1.97
				c-0.3,1.57-0.77,3.21-1.42,4.89c-0.3,0.76-0.63,1.51-1,2.24c1.18-0.14,2.33-0.37,3.44-0.66c0.61-0.16,1.17-0.34,1.72-0.53
				c3.66-1.27,7.21-3.44,10.57-6.47c4.63-4.16,7.6-8.78,8.55-10.38c-1.41-0.79-5.27-2.79-10.22-4.15
				C155.03,64.28,151.5,63.81,148.19,63.91z"/>
			<path class="st0" d="M132.6,99.28l-0.04,0.02c-0.34,0.2-0.71,0.36-1.08,0.48c-1.1,0.45-2.26,0.83-3.44,1.12
				c-0.57,0.15-1.16,0.27-1.81,0.39c-0.13,0.02-0.26,0.04-0.38,0.06l-0.49,0.08c-0.21,0.03-0.42,0.07-0.64,0.1
				c-1.18,0.15-2.45,0.22-3.77,0.22h-0.32c-0.8-0.01-1.57-0.04-2.31-0.1c-0.87-0.06-1.73-0.16-2.56-0.28
				c-0.92-0.14-1.8-0.28-2.75-0.45l-1.18-0.22c-0.5-0.11-1.02-0.23-1.55-0.37c-0.04-0.01-0.07-0.02-0.1-0.03
				c0.11,1.36,0.32,2.69,0.64,3.97c0.34,1.39,0.82,2.8,1.42,4.18c1.59,3.62,4.04,7.11,7.28,10.39c3.46,3.5,6.89,5.8,8.22,6.63
				c0.82-1.39,2.91-5.21,4.38-10.13c1.09-3.65,1.62-7.17,1.6-10.48v0c-0.01-1.99-0.24-3.94-0.67-5.79
				C132.89,99.14,132.74,99.21,132.6,99.28z"/>
			<g>
				<path class="st0" d="M94.33,93.23c-0.01,0-0.03,0-0.04,0c-3.13,8-2.52,17.54,0.13,25.59c1.06-0.34,5.48-1.87,10.24-4.9
					c-2.32-5.57-3.34-11.68-2.08-17.65c-1.58-1.09-2.94-2.32-4.06-3.67C97.14,92.91,95.73,93.13,94.33,93.23z"/>
				<path class="st0" d="M109.46,104.59c-0.41-1.68-0.65-3.43-0.73-5.21c-1.99-0.71-3.91-1.64-5.69-2.79
					c-2.11,10.42,2.78,21.47,9.55,29.26c0.69-0.6,3.18-2.82,5.82-6.17C114.27,115.48,110.87,110.37,109.46,104.59z"/>
				<path class="st0" d="M83.5,92.31c-2.45,6.11-3.02,11.77-3.12,13c1.11,0.09,5.77,0.4,11.34-0.54c0.02-3.91,0.6-7.84,2-11.5
					C90.3,93.44,86.84,93.06,83.5,92.31z"/>
				<path class="st0" d="M92.93,67.65c6.54-2.06,13.71-1.38,20.2,0.56c-1.83-2.11-3.43-4.42-4.69-6.9
					c-12.15-5.86-25.92-1.66-35.9,6.63c0.69,0.83,3.6,4.23,7.98,7.47C84.03,71.97,88.21,69.14,92.93,67.65z"/>
				<path class="st0" d="M105.55,50.39c0-0.01,0-0.03,0-0.04c-7.93-3.3-17.49-2.9-25.6-0.43c0.32,1.06,1.75,5.52,4.68,10.35
					c7.69-3.01,15.77-3.23,23.43,0.28C106.56,57.37,105.72,53.89,105.55,50.39z"/>
				<path class="st0" d="M106.7,39.58c-6.06-2.58-11.7-3.27-12.93-3.4c-0.12,1.1-0.53,5.76,0.3,11.35c3.89,0.1,7.85,0.78,11.47,2.25
					C105.43,46.56,105.82,43.14,106.7,39.58z"/>
				<path class="st0" d="M131.15,49.54c0.99,3.41,1.3,7.17,0.92,11.16v0c-0.28,2.92-0.93,5.96-1.92,9.03
					c2.19-1.82,4.6-3.32,7.09-4.7c5.87-12.02,2.22-25.64-5.93-35.87c-0.85,0.67-4.3,3.51-7.64,7.81
					C127.02,40.55,129.77,44.8,131.15,49.54z"/>
				<path class="st0" d="M148.15,62.53c0.01,0,0.03,0,0.04,0c3.46-7.85,3.27-17.42,0.97-25.58c-1.07,0.3-5.55,1.63-10.44,4.45
					c2.8,7.66,2.7,16.01-0.8,23.42c0.6-0.26,1.2-0.51,1.81-0.74c0.93-1.23,2.54-1.64,3.97-1.08
					C145.17,62.73,146.65,62.58,148.15,62.53z"/>
				<path class="st0" d="M158.91,63.92c2.71-6,3.53-11.63,3.68-12.86c-1.1-0.14-5.76-0.65-11.36,0.06
					c-0.19,3.91-0.94,7.81-2.49,11.41C151.98,62.5,155.39,62.96,158.91,63.92z"/>
				<path class="st0" d="M148.43,88.15c-1.67,0.45-3.41,0.71-5.14,0.84c-1.58,2.59-3.64,4.94-6.02,6.85
					c10.74,3.68,22.81-0.45,31.54-7.09c-0.65-0.86-3.42-4.38-7.64-7.8C157.51,84.21,153.2,86.86,148.43,88.15z"/>
				<path class="st0" d="M155.31,96.24c-6.08,1.88-12.49,2.14-18.53-0.02c-0.83,0.63-1.71,1.21-2.62,1.74
					c0.62,2.24,0.89,4.61,0.91,6.93c7.77,3.64,17.35,3.65,25.56,1.53c-0.27-1.08-1.51-5.58-4.22-10.54
					C156.04,96.01,155.68,96.12,155.31,96.24z"/>
				<path class="st0" d="M146.23,119.55c0.17-1.1,0.78-5.74,0.19-11.35c-3.9-0.27-7.79-1.11-11.36-2.74
					c-0.04,3.22-0.57,6.62-1.61,10.13C139.4,118.43,145.01,119.37,146.23,119.55z"/>
			</g>
		</g>
		<g>
			<g>
				<path class="st0" d="M107.47,84.17c0.4-2.44,1.02-4.74,1.82-6.81c-1.43-0.28-2.89-0.57-4.32-1.03
					c-1.96-0.64-3.82-1.73-5.45-3.19c0.09,2.35,0.59,6.02,2.75,7.99C103.73,82.47,105.53,83.41,107.47,84.17z"/>
			</g>
			<g>
				<path class="st0" d="M136.89,80.12c0.42-0.67,0.82-1.42,1.17-2.2c0.32-0.71,0.6-1.47,0.84-2.26c0.47-1.56,0.75-3.28,0.9-5.43
					c-0.02-0.12-0.03-0.23-0.05-0.34c-0.02-0.12-0.04-0.26-0.07-0.4c-0.12-0.77-0.27-1.72-0.92-2.18c-0.52-0.37-1.46-0.19-1.91,0.32
					c-0.64,0.73-0.47,1.94-0.34,2.91c0.03,0.2,0.05,0.38,0.07,0.55c0.12,1.22,0.23,2.33,0.29,3.44c0.11,1.99-0.34,4.06-1.23,5.69
					c-0.09,0.16-0.18,0.32-0.29,0.48c0.02-0.06,0.04-0.12,0.06-0.18c0.8-2.52,0.58-5.61-0.59-8.48c-0.27-0.66-0.83-1.37-1.57-1.37
					c-0.11,0-0.21,0.01-0.32,0.04c-0.29,0.08-0.52,0.25-0.67,0.52c-0.31,0.54-0.25,1.36-0.09,1.94c0.26,0.96,0.44,1.81,0.55,2.6
					c0.18,1.24,0.15,2.43-0.07,3.52c0.47,1.51,0.85,3.09,1.13,4.74C134.93,82.89,135.98,81.58,136.89,80.12z"/>
			</g>
			<g>
				<path class="st0" d="M132.3,80.51c-2.14-7.71-6.56-13.01-11.66-13.01c-1.58,0-3.14,0.52-4.63,1.55l0-0.01l-0.21,0.15l-0.12,0.09
					l0,0c-2.36,1.75-4.32,4.63-5.72,8.21c-0.82,2.1-1.44,4.43-1.84,6.93c1.55,0.57,3.18,1.02,4.78,1.48
					c1.09,0.31,2.3,0.65,3.48,1.03c0.17-0.47,0.35-0.96,0.53-1.49c0.15-0.42,0.29-0.85,0.43-1.28c0.1-0.29,0.19-0.58,0.29-0.87
					c0.28-0.83,0.56-1.55,0.85-2.2c0.05-0.12,0.11-0.23,0.16-0.34c0.9-1.9,1.98-3.18,3.39-3.98c0.56-0.32,1.41-0.7,2.26-0.7
					c0.58,0,1.09,0.19,1.48,0.54c1.22,1.1,0.45,2.83,0.08,3.66l-0.06,0.14c-0.74,1.68-1.33,3.45-1.78,5.28l-0.05,0.19
					c-0.07,0.27-0.14,0.55-0.19,0.83c-0.16,0.78-0.15,1.23,0.05,1.54c0.03,0.04,0.06,0.08,0.1,0.12c0.12,0.12,0.33,0.28,0.84,0.28
					c0.08,0,0.16,0,0.24-0.01c0.34-0.03,0.69-0.11,0.99-0.19c1.03-0.26,2.08-0.66,3.33-1.25c0.67-0.32,1.32-0.68,1.93-1.09
					c0.66-0.44,1.31-0.96,1.93-1.52C132.95,83.17,132.66,81.81,132.3,80.51z"/>
			</g>
			<g>
				<g>
					<path class="st0" d="M106.13,95.05c0.16,0.01,0.32,0.01,0.48,0.01c0.3,0,0.6-0.01,0.9-0.03c0.12-0.01,0.24-0.02,0.36-0.03
						c0.12-0.01,0.24-0.02,0.35-0.04c2.06-0.26,3.83-1.03,4.98-2.19c0.39-0.39,0.75-0.84,1.08-1.35c0.58-0.88,1.08-1.91,1.65-3.34
						c0.02-0.05,0.04-0.1,0.06-0.16c0.03-0.07,0.06-0.15,0.08-0.22c0.02-0.05,0.04-0.1,0.05-0.14c-0.04,0.11-7.25-2.17-7.93-2.41
						c-2.77-0.99-6.04-2.42-7.64-5.03c-1.36-2.23-1.74-5.01-1.76-7.58c0-0.05-0.02-0.1-0.06-0.13c-0.03-0.03-0.05-0.05-0.08-0.08
						c-0.02-0.02-0.04-0.04-0.06-0.06c-0.04-0.04-0.09-0.06-0.14-0.06c-0.05,0-0.1,0.02-0.14,0.05c-0.06,0.06-0.08,0.15-0.04,0.23
						c0,0.12-0.1,0.51-0.13,0.64c-0.02,0.08-0.03,0.14-0.04,0.17c-0.12,0.61-0.24,1.22-0.37,1.83c-0.42,2.05-0.86,4.17-0.96,6.32
						c-0.13,3,0.5,5.92,1.75,8.01c1.47,2.46,3.72,4.55,6.7,6.22c0.11-0.39,0.44-0.65,0.84-0.65
						C106.1,95.05,106.12,95.05,106.13,95.05z"/>
				</g>
				<g>
					<path class="st0" d="M144.49,68.13l-0.02-0.1c-0.14-0.9-0.29-1.92-0.95-2.67c-0.35-0.41-0.85-0.65-1.34-0.65
						c-0.41,0-0.76,0.17-1.03,0.48c-0.64,0.76-0.62,1.89-0.61,2.89c0,0.26,0.01,0.5,0,0.73c-0.07,1.87-0.22,3.43-0.48,4.83
						c-1.3,7.15-6.78,13.66-13.93,15.47c-0.33,0.08-0.71,0.17-1.1,0.2c-0.1,0.01-0.2,0.01-0.3,0.01c-0.58,0-1.01-0.16-1.33-0.5
						c-0.07-0.07-0.12-0.14-0.17-0.22c-0.39-0.59-0.31-1.34-0.16-2.07c0.06-0.29,0.13-0.57,0.2-0.85l0.05-0.19
						c0.46-1.87,1.07-3.68,1.82-5.39l0.06-0.14c0.35-0.78,0.93-2.1,0.09-2.87c-0.26-0.24-0.6-0.36-1.02-0.36
						c-0.74,0-1.52,0.38-1.92,0.61c-2.44,1.38-3.22,3.98-4.07,6.44c-1.05,3.08-2.28,7.12-4.6,9.46c-1.22,1.22-3.03,2.04-5.13,2.35
						c-0.12,0.02-0.24,0.04-0.36,0.05c-0.12,0.01-0.25,0.03-0.37,0.04c-0.4,0.04-0.81,0.06-1.22,0.06c-0.17,0-0.35,0-0.52-0.01
						c-0.01,0-0.01,0-0.02,0c-0.1,0-0.16,0.06-0.18,0.15c-0.02,0.09,0.02,0.18,0.1,0.22c0.27,0.14,0.51,0.26,0.75,0.37
						c8.36,4.05,19.45,4.15,27.37-1.01c6.62-4.31,10.37-11.58,10.85-19.37c0.09-1.38,0.08-2.77-0.03-4.16
						C144.85,70.69,144.49,69.38,144.49,68.13z"/>
				</g>
			</g>
			<g>
				<path class="st0" d="M120.6,65.96c2.88,0,5.22-2.34,5.22-5.22c0-2.88-2.34-5.22-5.22-5.22c-2.88,0-5.22,2.34-5.22,5.22
					C115.38,63.61,117.72,65.96,120.6,65.96z"/>
			</g>
		</g>
	</g>
</g>
<g>
	<g>
		<path class="st0" d="M191.23,39.38v2.99h9.01v4.35h-9.01v3.02h10.2v4.35h-15.86V35.02h15.59v4.35H191.23z"/>
		<path class="st0" d="M223.11,54.1h-6.8l-3.62-5.44l-3.56,5.44h-6.61l6.75-9.71l-6.31-9.36h6.58l3.16,4.98l3.18-4.98h6.67
			l-6.23,9.11L223.11,54.1z"/>
		<path class="st0" d="M233.37,35.02c4.92,0,7.75,2.45,7.75,6.77c0,4.54-2.83,7.16-7.75,7.16h-2.99v5.14h-5.66V35.02H233.37z
			 M230.37,44.6h2.72c1.69,0,2.67-0.92,2.67-2.64c0-1.66-0.98-2.58-2.67-2.58h-2.72V44.6z"/>
		<path class="st0" d="M262.99,44.55c0,5.6-4.41,9.79-10.39,9.79c-5.99,0-10.39-4.16-10.39-9.79c0-5.6,4.41-9.69,10.39-9.69
			C258.58,34.86,262.99,38.97,262.99,44.55z M248,44.57c0,2.88,2.18,5.03,4.68,5.03c2.5,0,4.52-2.15,4.52-5.03
			c0-2.88-2.01-4.98-4.52-4.98C250.15,39.59,248,41.69,248,44.57z"/>
		<path class="st0" d="M264.92,47.43V44h7.43v3.43H264.92z"/>
		<path class="st0" d="M281.02,39.38v2.99h9.01v4.35h-9.01v3.02h10.2v4.35h-15.86V35.02h15.59v4.35H281.02z"/>
		<path class="st0" d="M307.22,54.1l-8.08-10.61V54.1h-5.2V35.02h4.84l8.08,10.67V35.02h5.17V54.1H307.22z"/>
		<path class="st0" d="M332.3,38.23l-3.26,3.86c-1.2-1.52-2.97-2.53-4.54-2.53c-2.58,0-4.54,2.1-4.54,4.9s1.96,4.92,4.54,4.92
			c1.47,0,3.24-0.87,4.54-2.2l3.26,3.48c-2.07,2.23-5.2,3.67-8.08,3.67c-5.8,0-10.07-4.19-10.07-9.82c0-5.55,4.35-9.66,10.26-9.66
			C327.29,34.86,330.37,36.17,332.3,38.23z"/>
		<path class="st0" d="M351.64,46.04c0,5.06-3.46,8.3-8.9,8.3c-5.47,0-9.03-3.24-9.03-8.3V35.02h5.66v11.02c0,2.2,1.5,3.56,3.4,3.56
			c1.88,0,3.21-1.33,3.21-3.56V35.02h5.66V46.04z"/>
		<path class="st0" d="M360.21,39.38v2.99h9.01v4.35h-9.01v3.02h10.2v4.35h-15.86V35.02h15.59v4.35H360.21z"/>
		<path class="st0" d="M386.4,54.1l-8.08-10.61V54.1h-5.2V35.02h4.84l8.08,10.67V35.02h5.17V54.1H386.4z"/>
		<path class="st0" d="M404.19,39.54V54.1h-5.69V39.54h-5.52v-4.52h16.76v4.52H404.19z"/>
		<path class="st0" d="M420.16,48.95h-2.99v5.14h-5.66V35.02h8.9c5.12,0,8.05,2.45,8.05,6.77c0,2.83-1.14,4.9-3.21,6.07l3.86,6.23
			h-6.42L420.16,48.95z M420.4,44.6c1.69,0,2.67-0.92,2.67-2.64c0-1.66-0.98-2.58-2.67-2.58h-3.24v5.22H420.4z"/>
		<path class="st0" d="M450.93,44.55c0,5.6-4.41,9.79-10.39,9.79c-5.99,0-10.39-4.16-10.39-9.79c0-5.6,4.41-9.69,10.39-9.69
			C446.52,34.86,450.93,38.97,450.93,44.55z M435.93,44.57c0,2.88,2.18,5.03,4.68,5.03c2.5,0,4.52-2.15,4.52-5.03
			c0-2.88-2.01-4.98-4.52-4.98C438.08,39.59,435.93,41.69,435.93,44.57z"/>
	</g>
	<g>
		<path class="st0" d="M202.82,85.39l-0.03-15.7l-6.94,13.69h-1.31l-6.91-13.69v15.7h-2.07V66.35h2.69l6.97,13.71l6.94-13.71h2.67
			v19.05H202.82z"/>
		<path class="st0" d="M222.68,79.05h-11.7c0.38,2.8,2.42,4.57,5.2,4.57c1.77,0,3.32-0.63,4.43-1.8l1.17,1.25
			c-1.36,1.52-3.37,2.39-5.77,2.39c-4.22,0-7.13-2.97-7.13-7.24c0-4.27,2.94-7.24,7.1-7.24C220.61,70.97,222.89,74.18,222.68,79.05z
			 M220.77,77.31c-0.14-2.75-1.99-4.49-4.79-4.49c-2.72,0-4.68,1.77-5.01,4.49H220.77z"/>
		<path class="st0" d="M239.49,85.39h-2.12v-3.07c-1.06,2.01-3.02,3.18-5.58,3.18c-4.08,0-6.91-3.02-6.91-7.29
			c0-4.3,2.83-7.26,6.88-7.26c2.56,0,4.54,1.17,5.6,3.21V65.2h2.12V85.39z M237.37,78.26c0-3.13-2.15-5.39-5.17-5.39
			c-3.05,0-5.2,2.26-5.2,5.39c0,3.1,2.15,5.33,5.2,5.33C235.22,83.6,237.37,81.37,237.37,78.26z"/>
		<path class="st0" d="M247.21,66.95c0,0.84-0.6,1.47-1.39,1.47c-0.79,0-1.39-0.63-1.39-1.47s0.6-1.47,1.39-1.47
			C246.61,65.48,247.21,66.1,247.21,66.95z M244.79,85.39V71.05h2.09v14.34H244.79z"/>
		<path class="st0" d="M263.23,73.12l-1.17,1.5c-1.09-1.03-2.53-1.66-4.27-1.66c-2.97,0-5.09,2.15-5.09,5.28
			c0,3.13,2.12,5.31,5.09,5.31c1.88,0,3.43-0.65,4.44-1.85l1.22,1.31c-1.28,1.55-3.26,2.48-5.74,2.48c-4.16,0-7.1-2.97-7.1-7.24
			c0-4.27,2.97-7.24,7.1-7.24C260.02,70.97,261.93,71.76,263.23,73.12z"/>
		<path class="st0" d="M269.73,66.95c0,0.84-0.6,1.47-1.39,1.47c-0.79,0-1.39-0.63-1.39-1.47s0.6-1.47,1.39-1.47
			C269.13,65.48,269.73,66.1,269.73,66.95z M267.31,85.39V71.05h2.1v14.34H267.31z"/>
		<path class="st0" d="M287.69,76.55v8.84h-2.12v-8.27c0-2.53-1.52-4.03-4.05-4.03c-2.83,0.03-4.57,1.88-4.82,4.6v7.7h-2.12V71.05
			h2.12v3.16c1.01-2.18,2.94-3.21,5.55-3.24C285.67,70.97,287.69,73.09,287.69,76.55z"/>
		<path class="st0" d="M301.31,83.19c-1.14,1.55-2.97,2.31-5.25,2.31c-2.97,0-4.87-1.9-4.87-4.38c0-2.5,1.99-4.08,5.36-4.11h4.71
			v-0.84c0-2.1-1.31-3.35-3.84-3.35c-1.58,0-3.05,0.6-4.54,1.63l-0.9-1.55c1.85-1.22,3.4-1.93,5.85-1.93c3.54,0,5.5,1.88,5.52,4.95
			l0.03,9.47h-2.07V83.19z M301.29,80.44v-1.71h-4.46c-2.39,0-3.65,0.74-3.65,2.31c0,1.58,1.28,2.61,3.29,2.61
			C298.89,83.65,300.74,82.43,301.29,80.44z"/>
		<path class="st0" d="M321.66,68.44v16.95h-2.18V68.44h-6.2v-2.1h14.61v2.1H321.66z"/>
		<path class="st0" d="M331.51,74.24c0.95-2.1,2.72-3.24,5.14-3.26v2.15c-3.02-0.06-4.9,1.82-5.14,4.65v7.62h-2.12V71.05h2.12V74.24
			z"/>
		<path class="st0" d="M347.72,83.19c-1.14,1.55-2.97,2.31-5.25,2.31c-2.97,0-4.87-1.9-4.87-4.38c0-2.5,1.99-4.08,5.36-4.11h4.71
			v-0.84c0-2.1-1.31-3.35-3.84-3.35c-1.58,0-3.05,0.6-4.54,1.63l-0.9-1.55c1.85-1.22,3.4-1.93,5.85-1.93c3.54,0,5.5,1.88,5.52,4.95
			l0.03,9.47h-2.07V83.19z M347.69,80.44v-1.71h-4.46c-2.39,0-3.65,0.74-3.65,2.31c0,1.58,1.28,2.61,3.29,2.61
			C345.3,83.65,347.15,82.43,347.69,80.44z"/>
		<path class="st0" d="M367.69,85.39h-2.12v-3.07c-1.06,2.01-3.02,3.18-5.58,3.18c-4.08,0-6.91-3.02-6.91-7.29
			c0-4.3,2.83-7.26,6.88-7.26c2.56,0,4.54,1.17,5.6,3.21V65.2h2.12V85.39z M365.57,78.26c0-3.13-2.15-5.39-5.17-5.39
			c-3.05,0-5.2,2.26-5.2,5.39c0,3.1,2.15,5.33,5.2,5.33C363.42,83.6,365.57,81.37,365.57,78.26z"/>
		<path class="st0" d="M375.41,66.95c0,0.84-0.6,1.47-1.39,1.47c-0.79,0-1.39-0.63-1.39-1.47s0.6-1.47,1.39-1.47
			C374.81,65.48,375.41,66.1,375.41,66.95z M372.99,85.39V71.05h2.09v14.34H372.99z"/>
		<path class="st0" d="M391.43,73.12l-1.17,1.5c-1.09-1.03-2.53-1.66-4.27-1.66c-2.97,0-5.09,2.15-5.09,5.28
			c0,3.13,2.12,5.31,5.09,5.31c1.88,0,3.43-0.65,4.44-1.85l1.22,1.31c-1.28,1.55-3.26,2.48-5.74,2.48c-4.16,0-7.1-2.97-7.1-7.24
			c0-4.27,2.97-7.24,7.1-7.24C388.22,70.97,390.13,71.76,391.43,73.12z"/>
		<path class="st0" d="M397.93,66.95c0,0.84-0.6,1.47-1.39,1.47c-0.79,0-1.39-0.63-1.39-1.47s0.6-1.47,1.39-1.47
			C397.33,65.48,397.93,66.1,397.93,66.95z M395.51,85.39V71.05h2.1v14.34H395.51z"/>
		<path class="st0" d="M415.86,78.21c0,4.3-3.02,7.26-7.26,7.26c-4.24,0-7.26-2.97-7.26-7.26c0-4.27,3.02-7.21,7.26-7.21
			C412.84,71,415.86,73.94,415.86,78.21z M403.45,78.24c0,3.16,2.15,5.33,5.14,5.33c2.99,0,5.14-2.18,5.14-5.33
			c0-3.13-2.15-5.31-5.14-5.31C405.6,72.93,403.45,75.11,403.45,78.24z"/>
		<path class="st0" d="M432.7,76.55v8.84h-2.12v-8.27c0-2.53-1.52-4.03-4.05-4.03c-2.83,0.03-4.57,1.88-4.82,4.6v7.7h-2.12V71.05
			h2.12v3.16c1.01-2.18,2.94-3.21,5.55-3.24C430.69,70.97,432.7,73.09,432.7,76.55z"/>
		<path class="st0" d="M446.33,83.19c-1.14,1.55-2.97,2.31-5.25,2.31c-2.97,0-4.87-1.9-4.87-4.38c0-2.5,1.99-4.08,5.36-4.11h4.71
			v-0.84c0-2.1-1.31-3.35-3.84-3.35c-1.58,0-3.05,0.6-4.54,1.63l-0.9-1.55c1.85-1.22,3.4-1.93,5.85-1.93c3.54,0,5.5,1.88,5.52,4.95
			l0.03,9.47h-2.07V83.19z M446.3,80.44v-1.71h-4.46c-2.39,0-3.65,0.74-3.65,2.31c0,1.58,1.28,2.61,3.29,2.61
			C443.9,83.65,445.75,82.43,446.3,80.44z"/>
		<path class="st0" d="M453.26,85.39V65.2h2.12v20.19H453.26z"/>
		<path class="st0" d="M472.71,87.43c-0.9,2.2-2.39,3.35-4.3,3.35c-1.2,0-2.15-0.35-3.02-1.06l0.9-1.77
			c0.65,0.46,1.31,0.68,2.01,0.68c1.12,0,2.04-0.68,2.61-2.01l0.6-1.33l-5.93-14.23h2.23l4.76,11.83l4.54-11.83h2.18L472.71,87.43z"
			/>
	</g>
	<g>
		<path class="st0" d="M193.95,97.91v16.95h-2.18V97.91h-6.2v-2.1h14.61v2.1H193.95z"/>
		<path class="st0" d="M213.38,108.52h-11.7c0.38,2.8,2.42,4.57,5.2,4.57c1.77,0,3.32-0.63,4.43-1.8l1.17,1.25
			c-1.36,1.52-3.37,2.39-5.77,2.39c-4.22,0-7.13-2.97-7.13-7.24c0-4.27,2.94-7.24,7.1-7.24
			C211.31,100.44,213.59,103.65,213.38,108.52z M211.47,106.78c-0.14-2.75-1.99-4.49-4.79-4.49c-2.72,0-4.68,1.77-5.01,4.49H211.47z
			"/>
		<path class="st0" d="M219.14,103.71c0.95-2.1,2.72-3.24,5.14-3.26v2.15c-3.02-0.06-4.9,1.82-5.14,4.65v7.62h-2.12v-14.34h2.12
			V103.71z"/>
		<path class="st0" d="M235.35,112.66c-1.14,1.55-2.97,2.31-5.25,2.31c-2.97,0-4.87-1.9-4.87-4.38c0-2.5,1.99-4.08,5.36-4.11h4.71
			v-0.84c0-2.1-1.31-3.35-3.84-3.35c-1.58,0-3.05,0.6-4.54,1.63l-0.9-1.55c1.85-1.22,3.4-1.93,5.85-1.93c3.54,0,5.5,1.88,5.52,4.95
			l0.03,9.47h-2.07V112.66z M235.33,109.91v-1.71h-4.46c-2.39,0-3.65,0.74-3.65,2.31s1.28,2.61,3.29,2.61
			C232.93,113.12,234.78,111.9,235.33,109.91z"/>
		<path class="st0" d="M256.82,107.73c0,4.24-2.78,7.21-6.83,7.21c-2.56,0-4.52-1.17-5.58-3.16v8.35h-2.12v-19.62h2.12v3.1
			c1.06-2.01,3.02-3.18,5.52-3.18C253.99,100.44,256.82,103.43,256.82,107.73z M254.67,107.68c0-3.07-2.12-5.33-5.11-5.33
			c-3.02,0-5.14,2.23-5.14,5.33c0,3.13,2.12,5.33,5.14,5.33C252.55,113.01,254.67,110.78,254.67,107.68z"/>
		<path class="st0" d="M262.96,96.41c0,0.84-0.6,1.47-1.39,1.47c-0.79,0-1.39-0.63-1.39-1.47s0.6-1.47,1.39-1.47
			C262.36,94.95,262.96,95.57,262.96,96.41z M260.54,114.86v-14.34h2.09v14.34H260.54z"/>
		<path class="st0" d="M276.7,112.66c-1.14,1.55-2.97,2.31-5.25,2.31c-2.97,0-4.87-1.9-4.87-4.38c0-2.5,1.99-4.08,5.36-4.11h4.71
			v-0.84c0-2.1-1.31-3.35-3.84-3.35c-1.58,0-3.05,0.6-4.54,1.63l-0.9-1.55c1.85-1.22,3.4-1.93,5.85-1.93c3.54,0,5.5,1.88,5.52,4.95
			l0.03,9.47h-2.07V112.66z M276.67,109.91v-1.71h-4.46c-2.39,0-3.65,0.74-3.65,2.31s1.28,2.61,3.29,2.61
			C274.28,113.12,276.13,111.9,276.67,109.91z"/>
		<path class="st0" d="M291.88,101.75l-0.82,1.69c-1.12-0.71-2.56-1.17-3.89-1.17c-1.61,0-2.83,0.57-2.83,1.9c0,3.18,8,1.55,8,6.69
			c0,2.83-2.5,4.08-5.25,4.08c-2.04,0-4.14-0.71-5.5-2.01l0.82-1.6c1.22,1.14,3.07,1.82,4.76,1.82c1.69,0,3.05-0.63,3.07-2.04
			c0.08-3.46-7.94-1.69-7.92-6.77c0-2.75,2.37-3.89,4.98-3.89C289.02,100.44,290.68,100.93,291.88,101.75z"/>
		<path class="st0" d="M318.67,98.54l-1.31,1.66c-1.47-1.5-3.54-2.39-5.63-2.39c-4.3,0-7.75,3.32-7.75,7.51
			c0,4.16,3.46,7.51,7.75,7.51c2.09,0,4.14-0.87,5.63-2.29l1.33,1.5c-1.88,1.77-4.44,2.94-7.07,2.94c-5.5,0-9.85-4.27-9.85-9.66
			c0-5.33,4.41-9.55,9.93-9.55C314.32,95.76,316.85,96.82,318.67,98.54z"/>
		<path class="st0" d="M334.94,107.68c0,4.3-3.02,7.26-7.26,7.26c-4.24,0-7.26-2.97-7.26-7.26c0-4.27,3.02-7.21,7.26-7.21
			C331.92,100.47,334.94,103.41,334.94,107.68z M322.53,107.71c0,3.16,2.15,5.33,5.14,5.33c2.99,0,5.14-2.18,5.14-5.33
			c0-3.13-2.15-5.31-5.14-5.31C324.68,102.4,322.53,104.58,322.53,107.71z"/>
		<path class="st0" d="M362.36,106.02v8.84h-2.12v-8.27c0-2.56-1.5-4.05-3.97-4.05c-2.97,0.08-4.68,2.2-4.68,5.28v7.05h-2.15v-8.27
			c0-2.56-1.47-4.05-3.97-4.05c-2.94,0.08-4.71,2.2-4.71,5.28v7.05h-2.1v-14.34h2.1v3.24c0.95-2.23,2.88-3.29,5.47-3.32
			c2.69,0,4.54,1.39,5.14,3.75c0.9-2.53,2.91-3.73,5.66-3.75C360.37,100.44,362.36,102.56,362.36,106.02z"/>
		<path class="st0" d="M381.73,107.73c0,4.24-2.77,7.21-6.83,7.21c-2.56,0-4.52-1.17-5.58-3.16v8.35h-2.12v-19.62h2.12v3.1
			c1.06-2.01,3.02-3.18,5.52-3.18C378.9,100.44,381.73,103.43,381.73,107.73z M379.58,107.68c0-3.07-2.12-5.33-5.11-5.33
			c-3.02,0-5.14,2.23-5.14,5.33c0,3.13,2.12,5.33,5.14,5.33C377.45,113.01,379.58,110.78,379.58,107.68z"/>
		<path class="st0" d="M385.58,114.86V94.67h2.12v20.19H385.58z"/>
		<path class="st0" d="M405.36,108.52h-11.7c0.38,2.8,2.42,4.57,5.2,4.57c1.77,0,3.32-0.63,4.43-1.8l1.17,1.25
			c-1.36,1.52-3.37,2.39-5.77,2.39c-4.22,0-7.13-2.97-7.13-7.24c0-4.27,2.94-7.24,7.1-7.24
			C403.3,100.44,405.58,103.65,405.36,108.52z M403.46,106.78c-0.14-2.75-1.99-4.49-4.79-4.49c-2.72,0-4.68,1.77-5.01,4.49H403.46z"
			/>
		<path class="st0" d="M432.7,106.02v8.84h-2.12v-8.27c0-2.56-1.5-4.05-3.97-4.05c-2.97,0.08-4.68,2.2-4.68,5.28v7.05h-2.15v-8.27
			c0-2.56-1.47-4.05-3.97-4.05c-2.94,0.08-4.71,2.2-4.71,5.28v7.05h-2.1v-14.34h2.1v3.24c0.95-2.23,2.88-3.29,5.47-3.32
			c2.69,0,4.54,1.39,5.14,3.75c0.9-2.53,2.91-3.73,5.66-3.75C430.72,100.44,432.7,102.56,432.7,106.02z"/>
		<path class="st0" d="M449.76,108.52h-11.7c0.38,2.8,2.42,4.57,5.2,4.57c1.77,0,3.32-0.63,4.43-1.8l1.17,1.25
			c-1.36,1.52-3.37,2.39-5.77,2.39c-4.22,0-7.13-2.97-7.13-7.24c0-4.27,2.94-7.24,7.1-7.24
			C447.69,100.44,449.97,103.65,449.76,108.52z M447.85,106.78c-0.14-2.75-1.99-4.49-4.79-4.49c-2.72,0-4.68,1.77-5.01,4.49H447.85z
			"/>
		<path class="st0" d="M466.51,106.02v8.84h-2.12v-8.27c0-2.53-1.52-4.03-4.05-4.03c-2.83,0.03-4.57,1.88-4.82,4.6v7.7h-2.12v-14.34
			h2.12v3.16c1.01-2.18,2.94-3.21,5.55-3.24C464.5,100.44,466.51,102.56,466.51,106.02z"/>
		<path class="st0" d="M478.64,113.88c-1.01,0.68-2.1,1.06-3.24,1.09c-2.1,0-3.65-1.25-3.65-4.08v-8.19h-2.07v-1.71h2.07V97.2h2.1
			v3.78l4.54-0.03v1.74h-4.54v7.81c0,1.74,0.68,2.39,1.9,2.39c0.73,0,1.5-0.24,2.29-0.73L478.64,113.88z"/>
		<path class="st0" d="M490.75,112.66c-1.14,1.55-2.97,2.31-5.25,2.31c-2.97,0-4.87-1.9-4.87-4.38c0-2.5,1.99-4.08,5.36-4.11h4.71
			v-0.84c0-2.1-1.31-3.35-3.84-3.35c-1.58,0-3.05,0.6-4.54,1.63l-0.9-1.55c1.85-1.22,3.4-1.93,5.85-1.93c3.54,0,5.5,1.88,5.52,4.95
			l0.03,9.47h-2.07V112.66z M490.72,109.91v-1.71h-4.46c-2.39,0-3.65,0.74-3.65,2.31s1.28,2.61,3.29,2.61
			C488.33,113.12,490.18,111.9,490.72,109.91z"/>
		<path class="st0" d="M499.67,103.71c0.95-2.1,2.72-3.24,5.14-3.26v2.15c-3.02-0.06-4.9,1.82-5.14,4.65v7.62h-2.12v-14.34h2.12
			V103.71z"/>
		<path class="st0" d="M510.09,96.41c0,0.84-0.6,1.47-1.39,1.47c-0.79,0-1.39-0.63-1.39-1.47s0.6-1.47,1.39-1.47
			C509.49,94.95,510.09,95.57,510.09,96.41z M507.67,114.86v-14.34h2.09v14.34H507.67z"/>
		<path class="st0" d="M523.83,112.66c-1.14,1.55-2.97,2.31-5.25,2.31c-2.97,0-4.87-1.9-4.87-4.38c0-2.5,1.99-4.08,5.36-4.11h4.71
			v-0.84c0-2.1-1.31-3.35-3.84-3.35c-1.58,0-3.05,0.6-4.54,1.63l-0.9-1.55c1.85-1.22,3.4-1.93,5.85-1.93c3.54,0,5.5,1.88,5.52,4.95
			l0.03,9.47h-2.07V112.66z M523.8,109.91v-1.71h-4.46c-2.39,0-3.65,0.74-3.65,2.31s1.28,2.61,3.29,2.61
			C521.4,113.12,523.25,111.9,523.8,109.91z"/>
		<path class="st0" d="M539,101.75l-0.82,1.69c-1.12-0.71-2.56-1.17-3.89-1.17c-1.61,0-2.83,0.57-2.83,1.9c0,3.18,8,1.55,8,6.69
			c0,2.83-2.5,4.08-5.25,4.08c-2.04,0-4.14-0.71-5.5-2.01l0.82-1.6c1.22,1.14,3.07,1.82,4.76,1.82c1.69,0,3.05-0.63,3.07-2.04
			c0.08-3.46-7.94-1.69-7.92-6.77c0-2.75,2.37-3.89,4.98-3.89C536.15,100.44,537.81,100.93,539,101.75z"/>
	</g>
</g>
</svg>
