<?xml version="1.0" encoding="UTF-8" standalone="no"?>
<!-- Generator: Adobe Illustrator 25.2.3, SVG Export Plug-In . SVG Version: 6.00 Build 0)  -->

<svg
   version="1.1"
   id="Layer_1"
   x="0px"
   y="0px"
   viewBox="0 0 612 154"
   style="enable-background:new 0 0 612 154;"
   xml:space="preserve"
   sodipodi:docname="Logo_Blanco.svg"
   inkscape:version="1.1 (c68e22c387, 2021-05-23)"
   xmlns:inkscape="http://www.inkscape.org/namespaces/inkscape"
   xmlns:sodipodi="http://sodipodi.sourceforge.net/DTD/sodipodi-0.dtd"
   xmlns="http://www.w3.org/2000/svg"
   xmlns:svg="http://www.w3.org/2000/svg"><defs
   id="defs175">
	
	
	
	
	
	
	
	
	
	
	
	
	
	
	
	
	
	
	
	
	
	
</defs><sodipodi:namedview
   id="namedview173"
   pagecolor="#ffffff"
   bordercolor="#666666"
   borderopacity="1.0"
   inkscape:pageshadow="2"
   inkscape:pageopacity="0.0"
   inkscape:pagecheckerboard="0"
   showgrid="false"
   inkscape:zoom="0.52130991"
   inkscape:cx="-113.17644"
   inkscape:cy="-146.74572"
   inkscape:window-width="1920"
   inkscape:window-height="1017"
   inkscape:window-x="-8"
   inkscape:window-y="-8"
   inkscape:window-maximized="1"
   inkscape:current-layer="Layer_1" />
<style
   type="text/css"
   id="style2">
	.st0{fill:#522D6D;}
	.st1{fill:#808080;}
	.st2{fill:#96C121;}
	.st3{fill:#00BBB4;}
	.st4{fill:#2E1A46;}
	.st5{fill:#DAE343;}
	.st6{fill:#84DADE;}
	.st7{fill:#A975B2;}
	.st8{fill:#FF9015;}
	.st9{fill:#FFB259;}
	.st10{fill:#FECB8B;}
	.st11{fill:#FF7F30;}
</style>
<g
   id="g124"
   style="fill:#ffffff">
		<g
   id="g32"
   style="fill:#ffffff">
			<path
   class="st0"
   d="m 230.12,45.71 v 2.5 h 7.51 v 3.63 h -7.51 v 2.52 h 8.51 v 3.63 H 225.4 V 42.08 h 13 v 3.63 z"
   id="path4"
   style="fill:#ffffff" />
			<path
   class="st0"
   d="m 256.71,57.98 h -5.67 l -3.02,-4.54 -2.97,4.54 h -5.51 l 5.63,-8.1 -5.26,-7.81 h 5.49 l 2.63,4.15 2.65,-4.15 h 5.56 l -5.2,7.6 z"
   id="path6"
   style="fill:#ffffff" />
			<path
   class="st0"
   d="m 265.26,42.08 c 4.11,0 6.47,2.04 6.47,5.65 0,3.79 -2.36,5.97 -6.47,5.97 h -2.5 v 4.29 h -4.72 V 42.08 Z m -2.49,7.98 h 2.27 c 1.41,0 2.22,-0.77 2.22,-2.2 0,-1.38 -0.82,-2.16 -2.22,-2.16 h -2.27 z"
   id="path8"
   style="fill:#ffffff" />
			<path
   class="st0"
   d="m 289.97,50.02 c 0,4.67 -3.68,8.17 -8.67,8.17 -4.99,0 -8.67,-3.47 -8.67,-8.17 0,-4.67 3.68,-8.08 8.67,-8.08 4.99,0 8.67,3.43 8.67,8.08 z m -12.5,0.02 c 0,2.4 1.82,4.2 3.9,4.2 2.09,0 3.77,-1.79 3.77,-4.2 0,-2.41 -1.68,-4.15 -3.77,-4.15 -2.11,0 -3.9,1.75 -3.9,4.15 z"
   id="path10"
   style="fill:#ffffff" />
			<path
   class="st0"
   d="m 291.58,52.42 v -2.86 h 6.19 v 2.86 z"
   id="path12"
   style="fill:#ffffff" />
			<path
   class="st0"
   d="m 305,45.71 v 2.5 h 7.51 v 3.63 H 305 v 2.52 h 8.51 v 3.63 H 300.28 V 42.08 h 13 v 3.63 z"
   id="path14"
   style="fill:#ffffff" />
			<path
   class="st0"
   d="m 326.85,57.98 -6.74,-8.85 v 8.85 h -4.33 v -15.9 h 4.04 l 6.74,8.89 v -8.89 h 4.31 v 15.91 h -4.02 z"
   id="path16"
   style="fill:#ffffff" />
			<path
   class="st0"
   d="m 347.77,44.75 -2.72,3.22 c -1,-1.27 -2.47,-2.11 -3.79,-2.11 -2.16,0 -3.79,1.75 -3.79,4.08 0,2.34 1.63,4.11 3.79,4.11 1.23,0 2.7,-0.73 3.79,-1.84 l 2.72,2.9 c -1.72,1.86 -4.33,3.06 -6.74,3.06 -4.83,0 -8.4,-3.49 -8.4,-8.19 0,-4.63 3.63,-8.05 8.55,-8.05 2.41,0.01 4.98,1.1 6.59,2.82 z"
   id="path18"
   style="fill:#ffffff" />
			<path
   class="st0"
   d="m 363.9,51.27 c 0,4.22 -2.88,6.92 -7.42,6.92 -4.56,0 -7.53,-2.7 -7.53,-6.92 v -9.19 h 4.72 v 9.19 c 0,1.84 1.25,2.97 2.84,2.97 1.57,0 2.68,-1.11 2.68,-2.97 v -9.19 h 4.72 v 9.19 z"
   id="path20"
   style="fill:#ffffff" />
			<path
   class="st0"
   d="m 371.04,45.71 v 2.5 h 7.51 v 3.63 h -7.51 v 2.52 h 8.51 v 3.63 H 366.32 V 42.08 h 13 v 3.63 z"
   id="path22"
   style="fill:#ffffff" />
			<path
   class="st0"
   d="m 392.89,57.98 -6.74,-8.85 v 8.85 h -4.33 v -15.9 h 4.04 l 6.74,8.89 v -8.89 h 4.31 v 15.91 h -4.02 z"
   id="path24"
   style="fill:#ffffff" />
			<path
   class="st0"
   d="m 407.72,45.84 v 12.14 h -4.74 V 45.84 h -4.61 v -3.77 h 13.98 v 3.77 z"
   id="path26"
   style="fill:#ffffff" />
			<path
   class="st0"
   d="m 421.04,53.69 h -2.5 v 4.29 h -4.72 v -15.9 h 7.42 c 4.27,0 6.72,2.04 6.72,5.65 0,2.36 -0.95,4.08 -2.68,5.06 l 3.22,5.2 h -5.35 z m 0.2,-3.63 c 1.41,0 2.22,-0.77 2.22,-2.2 0,-1.38 -0.82,-2.16 -2.22,-2.16 h -2.7 v 4.36 z"
   id="path28"
   style="fill:#ffffff" />
			<path
   class="st0"
   d="m 446.7,50.02 c 0,4.67 -3.68,8.17 -8.67,8.17 -4.99,0 -8.67,-3.47 -8.67,-8.17 0,-4.67 3.68,-8.08 8.67,-8.08 4.99,0 8.67,3.43 8.67,8.08 z m -12.51,0.02 c 0,2.4 1.82,4.2 3.9,4.2 2.09,0 3.77,-1.79 3.77,-4.2 0,-2.41 -1.68,-4.15 -3.77,-4.15 -2.1,0 -3.9,1.75 -3.9,4.15 z"
   id="path30"
   style="fill:#ffffff" />
		</g>
		<g
   id="g74"
   style="fill:#ffffff">
			<path
   class="st1"
   d="m 239.79,84.08 -0.02,-13.09 -5.79,11.41 h -1.09 l -5.76,-11.41 v 13.09 h -1.72 V 68.2 h 2.25 l 5.81,11.44 5.79,-11.44 h 2.22 v 15.88 z"
   id="path34"
   style="fill:#ffffff" />
			<path
   class="st1"
   d="m 256.35,78.8 h -9.76 c 0.32,2.34 2.02,3.81 4.33,3.81 1.47,0 2.77,-0.52 3.7,-1.5 l 0.98,1.04 c -1.13,1.27 -2.81,2 -4.81,2 -3.52,0 -5.94,-2.47 -5.94,-6.04 0,-3.56 2.45,-6.04 5.92,-6.04 3.85,-0.01 5.76,2.66 5.58,6.73 z m -1.59,-1.46 c -0.11,-2.29 -1.66,-3.74 -3.99,-3.74 -2.27,0 -3.9,1.47 -4.17,3.74 z"
   id="path36"
   style="fill:#ffffff" />
			<path
   class="st1"
   d="m 270.37,84.08 h -1.77 v -2.56 c -0.88,1.68 -2.52,2.65 -4.65,2.65 -3.4,0 -5.76,-2.52 -5.76,-6.08 0,-3.59 2.36,-6.06 5.74,-6.06 2.13,0 3.79,0.98 4.67,2.68 v -7.46 h 1.77 z m -1.77,-5.94 c 0,-2.61 -1.79,-4.49 -4.31,-4.49 -2.54,0 -4.33,1.88 -4.33,4.49 0,2.59 1.79,4.45 4.33,4.45 2.52,-0.01 4.31,-1.87 4.31,-4.45 z"
   id="path38"
   style="fill:#ffffff" />
			<path
   class="st1"
   d="m 276.81,68.7 c 0,0.7 -0.5,1.23 -1.16,1.23 -0.66,0 -1.16,-0.52 -1.16,-1.23 0,-0.71 0.5,-1.23 1.16,-1.23 0.66,0 1.16,0.52 1.16,1.23 z m -2.02,15.38 V 72.12 h 1.75 v 11.96 z"
   id="path40"
   style="fill:#ffffff" />
			<path
   class="st1"
   d="m 290.17,73.85 -0.98,1.25 c -0.91,-0.86 -2.11,-1.38 -3.56,-1.38 -2.47,0 -4.24,1.79 -4.24,4.4 0,2.61 1.77,4.42 4.24,4.42 1.57,0 2.86,-0.55 3.7,-1.54 l 1.02,1.09 c -1.07,1.29 -2.72,2.06 -4.79,2.06 -3.47,0 -5.92,-2.47 -5.92,-6.04 0,-3.56 2.47,-6.04 5.92,-6.04 1.93,-0.01 3.52,0.64 4.61,1.78 z"
   id="path42"
   style="fill:#ffffff" />
			<path
   class="st1"
   d="m 295.59,68.7 c 0,0.7 -0.5,1.23 -1.16,1.23 -0.66,0 -1.16,-0.52 -1.16,-1.23 0,-0.71 0.5,-1.23 1.16,-1.23 0.66,0 1.16,0.52 1.16,1.23 z m -2.02,15.38 V 72.12 h 1.75 v 11.96 z"
   id="path44"
   style="fill:#ffffff" />
			<path
   class="st1"
   d="m 310.56,76.71 v 7.37 h -1.77 v -6.9 c 0,-2.11 -1.27,-3.36 -3.38,-3.36 -2.36,0.02 -3.81,1.57 -4.02,3.83 v 6.42 h -1.77 V 72.12 h 1.77 v 2.63 c 0.84,-1.82 2.45,-2.68 4.63,-2.7 2.86,0.01 4.54,1.78 4.54,4.66 z"
   id="path46"
   style="fill:#ffffff" />
			<path
   class="st1"
   d="m 321.93,82.24 c -0.95,1.29 -2.47,1.93 -4.38,1.93 -2.47,0 -4.06,-1.59 -4.06,-3.65 0,-2.09 1.66,-3.4 4.47,-3.43 h 3.92 v -0.7 c 0,-1.75 -1.09,-2.79 -3.2,-2.79 -1.32,0 -2.54,0.5 -3.79,1.36 l -0.75,-1.29 c 1.54,-1.02 2.84,-1.61 4.88,-1.61 2.95,0 4.58,1.57 4.61,4.13 l 0.02,7.9 h -1.72 z m -0.02,-2.29 v -1.43 h -3.72 c -2,0 -3.04,0.61 -3.04,1.93 0,1.32 1.07,2.18 2.75,2.18 2.01,0 3.55,-1.02 4.01,-2.68 z"
   id="path48"
   style="fill:#ffffff" />
			<path
   class="st1"
   d="m 338.9,69.95 v 14.14 h -1.82 V 69.95 h -5.17 V 68.2 h 12.18 v 1.75 z"
   id="path50"
   style="fill:#ffffff" />
			<path
   class="st1"
   d="m 347.11,74.78 c 0.79,-1.75 2.27,-2.7 4.29,-2.72 v 1.79 c -2.52,-0.05 -4.08,1.52 -4.29,3.88 v 6.35 h -1.77 V 72.12 h 1.77 z"
   id="path52"
   style="fill:#ffffff" />
			<path
   class="st1"
   d="m 360.63,82.24 c -0.95,1.29 -2.47,1.93 -4.38,1.93 -2.47,0 -4.06,-1.59 -4.06,-3.65 0,-2.09 1.66,-3.4 4.47,-3.43 h 3.92 v -0.7 c 0,-1.75 -1.09,-2.79 -3.2,-2.79 -1.32,0 -2.54,0.5 -3.79,1.36 l -0.75,-1.29 c 1.54,-1.02 2.84,-1.61 4.88,-1.61 2.95,0 4.58,1.57 4.61,4.13 l 0.02,7.9 h -1.72 z m -0.02,-2.29 v -1.43 h -3.72 c -2,0 -3.04,0.61 -3.04,1.93 0,1.32 1.07,2.18 2.75,2.18 2.01,0 3.55,-1.02 4.01,-2.68 z"
   id="path54"
   style="fill:#ffffff" />
			<path
   class="st1"
   d="m 377.28,84.08 h -1.77 v -2.56 c -0.88,1.68 -2.52,2.65 -4.65,2.65 -3.4,0 -5.76,-2.52 -5.76,-6.08 0,-3.59 2.36,-6.06 5.74,-6.06 2.13,0 3.79,0.98 4.67,2.68 v -7.46 h 1.77 z m -1.77,-5.94 c 0,-2.61 -1.79,-4.49 -4.31,-4.49 -2.54,0 -4.33,1.88 -4.33,4.49 0,2.59 1.79,4.45 4.33,4.45 2.52,-0.01 4.31,-1.87 4.31,-4.45 z"
   id="path56"
   style="fill:#ffffff" />
			<path
   class="st1"
   d="m 383.72,68.7 c 0,0.7 -0.5,1.23 -1.16,1.23 -0.66,0 -1.16,-0.52 -1.16,-1.23 0,-0.71 0.5,-1.23 1.16,-1.23 0.66,0 1.16,0.52 1.16,1.23 z M 381.7,84.08 V 72.12 h 1.75 v 11.96 z"
   id="path58"
   style="fill:#ffffff" />
			<path
   class="st1"
   d="m 397.08,73.85 -0.98,1.25 c -0.91,-0.86 -2.11,-1.38 -3.56,-1.38 -2.47,0 -4.24,1.79 -4.24,4.4 0,2.61 1.77,4.42 4.24,4.42 1.57,0 2.86,-0.55 3.7,-1.54 l 1.02,1.09 c -1.07,1.29 -2.72,2.06 -4.79,2.06 -3.47,0 -5.92,-2.47 -5.92,-6.04 0,-3.56 2.47,-6.04 5.92,-6.04 1.93,-0.01 3.52,0.64 4.61,1.78 z"
   id="path60"
   style="fill:#ffffff" />
			<path
   class="st1"
   d="m 402.5,68.7 c 0,0.7 -0.5,1.23 -1.16,1.23 -0.66,0 -1.16,-0.52 -1.16,-1.23 0,-0.71 0.5,-1.23 1.16,-1.23 0.66,0 1.16,0.52 1.16,1.23 z m -2.02,15.38 V 72.12 h 1.75 v 11.96 z"
   id="path62"
   style="fill:#ffffff" />
			<path
   class="st1"
   d="m 417.45,78.09 c 0,3.59 -2.52,6.06 -6.06,6.06 -3.54,0 -6.06,-2.47 -6.06,-6.06 0,-3.56 2.52,-6.01 6.06,-6.01 3.54,0 6.06,2.45 6.06,6.01 z m -10.34,0.02 c 0,2.63 1.79,4.45 4.29,4.45 2.5,0 4.29,-1.82 4.29,-4.45 0,-2.61 -1.79,-4.42 -4.29,-4.42 -2.5,0 -4.29,1.82 -4.29,4.42 z"
   id="path64"
   style="fill:#ffffff" />
			<path
   class="st1"
   d="m 431.5,76.71 v 7.37 h -1.77 v -6.9 c 0,-2.11 -1.27,-3.36 -3.38,-3.36 -2.36,0.02 -3.81,1.57 -4.02,3.83 v 6.42 h -1.77 V 72.12 h 1.77 v 2.63 c 0.84,-1.82 2.45,-2.68 4.63,-2.7 2.86,0.01 4.54,1.78 4.54,4.66 z"
   id="path66"
   style="fill:#ffffff" />
			<path
   class="st1"
   d="m 442.86,82.24 c -0.95,1.29 -2.47,1.93 -4.38,1.93 -2.47,0 -4.06,-1.59 -4.06,-3.65 0,-2.09 1.66,-3.4 4.47,-3.43 h 3.93 v -0.7 c 0,-1.75 -1.09,-2.79 -3.2,-2.79 -1.32,0 -2.54,0.5 -3.79,1.36 l -0.75,-1.29 c 1.54,-1.02 2.84,-1.61 4.88,-1.61 2.95,0 4.58,1.57 4.61,4.13 l 0.02,7.9 h -1.72 v -1.85 z m -0.02,-2.29 v -1.43 h -3.72 c -2,0 -3.04,0.61 -3.04,1.93 0,1.32 1.07,2.18 2.75,2.18 2.01,0 3.55,-1.02 4.01,-2.68 z"
   id="path68"
   style="fill:#ffffff" />
			<path
   class="st1"
   d="M 448.64,84.08 V 67.25 h 1.77 v 16.84 h -1.77 z"
   id="path70"
   style="fill:#ffffff" />
			<path
   class="st1"
   d="m 464.86,85.78 c -0.75,1.84 -2,2.79 -3.59,2.79 -1,0 -1.79,-0.3 -2.52,-0.88 l 0.75,-1.47 c 0.54,0.39 1.09,0.57 1.68,0.57 0.93,0 1.7,-0.57 2.18,-1.68 l 0.5,-1.11 -4.95,-11.87 h 1.86 l 3.97,9.87 3.79,-9.87 h 1.82 z"
   id="path72"
   style="fill:#ffffff" />
		</g>
		<g
   id="g122"
   style="fill:#ffffff">
			<path
   class="st1"
   d="m 232.39,94.52 v 14.14 h -1.82 V 94.52 h -5.17 v -1.75 h 12.18 v 1.75 z"
   id="path76"
   style="fill:#ffffff" />
			<path
   class="st1"
   d="m 248.59,103.37 h -9.76 c 0.32,2.34 2.02,3.81 4.33,3.81 1.47,0 2.77,-0.52 3.7,-1.5 l 0.98,1.04 c -1.13,1.27 -2.81,2 -4.81,2 -3.52,0 -5.94,-2.47 -5.94,-6.04 0,-3.56 2.45,-6.04 5.92,-6.04 3.86,-0.01 5.76,2.67 5.58,6.73 z M 247,101.92 c -0.11,-2.29 -1.66,-3.74 -3.99,-3.74 -2.27,0 -3.9,1.47 -4.17,3.74 z"
   id="path78"
   style="fill:#ffffff" />
			<path
   class="st1"
   d="m 253.4,99.35 c 0.79,-1.75 2.27,-2.7 4.29,-2.72 v 1.79 c -2.52,-0.05 -4.08,1.52 -4.29,3.88 v 6.35 h -1.77 V 96.7 h 1.77 z"
   id="path80"
   style="fill:#ffffff" />
			<path
   class="st1"
   d="m 266.92,106.82 c -0.95,1.29 -2.47,1.93 -4.38,1.93 -2.47,0 -4.06,-1.59 -4.06,-3.65 0,-2.09 1.66,-3.4 4.47,-3.43 h 3.92 v -0.7 c 0,-1.75 -1.09,-2.79 -3.2,-2.79 -1.32,0 -2.54,0.5 -3.79,1.36 l -0.75,-1.29 c 1.54,-1.02 2.84,-1.61 4.88,-1.61 2.95,0 4.58,1.57 4.61,4.13 l 0.02,7.9 h -1.72 z m -0.02,-2.29 v -1.43 h -3.72 c -2,0 -3.04,0.61 -3.04,1.93 0,1.32 1.07,2.18 2.75,2.18 2.01,0 3.55,-1.03 4.01,-2.68 z"
   id="path82"
   style="fill:#ffffff" />
			<path
   class="st1"
   d="m 284.82,102.71 c 0,3.54 -2.31,6.01 -5.69,6.01 -2.13,0 -3.77,-0.98 -4.65,-2.63 v 6.97 h -1.77 V 96.7 h 1.77 v 2.59 c 0.88,-1.68 2.52,-2.65 4.61,-2.65 3.37,-0.01 5.73,2.49 5.73,6.07 z m -1.79,-0.04 c 0,-2.56 -1.77,-4.45 -4.27,-4.45 -2.52,0 -4.29,1.86 -4.29,4.45 0,2.61 1.77,4.45 4.29,4.45 2.5,-0.01 4.27,-1.87 4.27,-4.45 z"
   id="path84"
   style="fill:#ffffff" />
			<path
   class="st1"
   d="m 289.94,93.27 c 0,0.7 -0.5,1.23 -1.16,1.23 -0.66,0 -1.16,-0.52 -1.16,-1.23 0,-0.7 0.5,-1.23 1.16,-1.23 0.66,0.01 1.16,0.53 1.16,1.23 z m -2.02,15.39 V 96.7 h 1.75 v 11.96 z"
   id="path86"
   style="fill:#ffffff" />
			<path
   class="st1"
   d="m 301.4,106.82 c -0.95,1.29 -2.47,1.93 -4.38,1.93 -2.47,0 -4.06,-1.59 -4.06,-3.65 0,-2.09 1.66,-3.4 4.47,-3.43 h 3.92 v -0.7 c 0,-1.75 -1.09,-2.79 -3.2,-2.79 -1.32,0 -2.54,0.5 -3.79,1.36 l -0.75,-1.29 c 1.54,-1.02 2.84,-1.61 4.88,-1.61 2.95,0 4.58,1.57 4.61,4.13 l 0.02,7.9 h -1.72 z m -0.02,-2.29 v -1.43 h -3.72 c -2,0 -3.04,0.61 -3.04,1.93 0,1.32 1.07,2.18 2.75,2.18 2.01,0 3.55,-1.03 4.01,-2.68 z"
   id="path88"
   style="fill:#ffffff" />
			<path
   class="st1"
   d="m 314.06,97.72 -0.68,1.41 c -0.93,-0.59 -2.13,-0.98 -3.24,-0.98 -1.34,0 -2.36,0.48 -2.36,1.59 0,2.65 6.67,1.29 6.67,5.58 0,2.36 -2.09,3.4 -4.38,3.4 -1.7,0 -3.45,-0.59 -4.58,-1.68 l 0.68,-1.34 c 1.02,0.95 2.56,1.52 3.97,1.52 1.41,0 2.54,-0.52 2.56,-1.7 0.07,-2.88 -6.63,-1.41 -6.6,-5.65 0,-2.29 1.97,-3.24 4.15,-3.24 1.43,0 2.81,0.41 3.81,1.09 z"
   id="path90"
   style="fill:#ffffff" />
			<path
   class="st1"
   d="m 336.4,95.04 -1.09,1.38 c -1.23,-1.25 -2.95,-2 -4.7,-2 -3.59,0 -6.47,2.77 -6.47,6.26 0,3.47 2.88,6.26 6.47,6.26 1.75,0 3.45,-0.73 4.7,-1.91 l 1.11,1.25 c -1.57,1.47 -3.7,2.45 -5.9,2.45 -4.58,0 -8.21,-3.56 -8.21,-8.05 0,-4.45 3.68,-7.96 8.28,-7.96 2.18,0.01 4.29,0.89 5.81,2.32 z"
   id="path92"
   style="fill:#ffffff" />
			<path
   class="st1"
   d="m 349.97,102.67 c 0,3.59 -2.52,6.06 -6.06,6.06 -3.54,0 -6.06,-2.47 -6.06,-6.06 0,-3.56 2.52,-6.01 6.06,-6.01 3.54,-0.01 6.06,2.44 6.06,6.01 z m -10.35,0.02 c 0,2.63 1.79,4.45 4.29,4.45 2.5,0 4.29,-1.82 4.29,-4.45 0,-2.61 -1.79,-4.42 -4.29,-4.42 -2.5,0 -4.29,1.81 -4.29,4.42 z"
   id="path94"
   style="fill:#ffffff" />
			<path
   class="st1"
   d="m 372.84,101.28 v 7.37 h -1.77 v -6.9 c 0,-2.13 -1.25,-3.38 -3.31,-3.38 -2.47,0.07 -3.9,1.84 -3.9,4.4 v 5.88 h -1.79 v -6.9 c 0,-2.13 -1.22,-3.38 -3.31,-3.38 -2.45,0.07 -3.92,1.84 -3.92,4.4 v 5.88 h -1.75 V 96.7 h 1.75 v 2.7 c 0.79,-1.86 2.4,-2.75 4.56,-2.77 2.25,0 3.79,1.16 4.29,3.13 0.75,-2.11 2.43,-3.11 4.72,-3.13 2.77,0 4.43,1.77 4.43,4.65 z"
   id="path96"
   style="fill:#ffffff" />
			<path
   class="st1"
   d="m 388.99,102.71 c 0,3.54 -2.31,6.01 -5.69,6.01 -2.13,0 -3.77,-0.98 -4.65,-2.63 v 6.97 h -1.77 V 96.7 h 1.77 v 2.59 c 0.88,-1.68 2.52,-2.65 4.61,-2.65 3.37,-0.01 5.73,2.49 5.73,6.07 z m -1.8,-0.04 c 0,-2.56 -1.77,-4.45 -4.27,-4.45 -2.52,0 -4.29,1.86 -4.29,4.45 0,2.61 1.77,4.45 4.29,4.45 2.5,-0.01 4.27,-1.87 4.27,-4.45 z"
   id="path98"
   style="fill:#ffffff" />
			<path
   class="st1"
   d="M 392.2,108.66 V 91.82 h 1.77 v 16.84 z"
   id="path100"
   style="fill:#ffffff" />
			<path
   class="st1"
   d="m 408.7,103.37 h -9.76 c 0.32,2.34 2.02,3.81 4.33,3.81 1.47,0 2.77,-0.52 3.7,-1.5 l 0.98,1.04 c -1.13,1.27 -2.81,2 -4.81,2 -3.52,0 -5.94,-2.47 -5.94,-6.04 0,-3.56 2.45,-6.04 5.92,-6.04 3.85,-0.01 5.76,2.67 5.58,6.73 z m -1.59,-1.45 c -0.11,-2.29 -1.66,-3.74 -3.99,-3.74 -2.27,0 -3.9,1.47 -4.17,3.74 z"
   id="path102"
   style="fill:#ffffff" />
			<path
   class="st1"
   d="m 431.5,101.28 v 7.37 h -1.77 v -6.9 c 0,-2.13 -1.25,-3.38 -3.31,-3.38 -2.47,0.07 -3.9,1.84 -3.9,4.4 v 5.88 h -1.79 v -6.9 c 0,-2.13 -1.22,-3.38 -3.31,-3.38 -2.45,0.07 -3.92,1.84 -3.92,4.4 v 5.88 h -1.75 V 96.7 h 1.75 v 2.7 c 0.79,-1.86 2.4,-2.75 4.56,-2.77 2.25,0 3.79,1.16 4.29,3.13 0.75,-2.11 2.43,-3.11 4.72,-3.13 2.77,0 4.43,1.77 4.43,4.65 z"
   id="path104"
   style="fill:#ffffff" />
			<path
   class="st1"
   d="m 445.72,103.37 h -9.76 c 0.32,2.34 2.02,3.81 4.33,3.81 1.47,0 2.77,-0.52 3.7,-1.5 l 0.98,1.04 c -1.13,1.27 -2.81,2 -4.81,2 -3.52,0 -5.94,-2.47 -5.94,-6.04 0,-3.56 2.45,-6.04 5.92,-6.04 3.86,-0.01 5.76,2.67 5.58,6.73 z m -1.59,-1.45 c -0.11,-2.29 -1.66,-3.74 -3.99,-3.74 -2.27,0 -3.9,1.47 -4.17,3.74 z"
   id="path106"
   style="fill:#ffffff" />
			<path
   class="st1"
   d="m 459.69,101.28 v 7.37 h -1.77 v -6.9 c 0,-2.11 -1.27,-3.36 -3.38,-3.36 -2.36,0.02 -3.81,1.57 -4.02,3.83 v 6.42 h -1.77 V 96.7 h 1.77 v 2.63 c 0.84,-1.82 2.45,-2.68 4.63,-2.7 2.87,0 4.54,1.77 4.54,4.65 z"
   id="path108"
   style="fill:#ffffff" />
			<path
   class="st1"
   d="m 469.81,107.84 c -0.84,0.57 -1.75,0.88 -2.7,0.91 -1.75,0 -3.04,-1.04 -3.04,-3.4 v -6.83 h -1.72 v -1.43 h 1.72 v -3.15 h 1.75 v 3.15 l 3.79,-0.02 v 1.45 h -3.79 v 6.51 c 0,1.45 0.57,2 1.59,2 0.61,0 1.25,-0.2 1.91,-0.61 z"
   id="path110"
   style="fill:#ffffff" />
			<path
   class="st1"
   d="m 479.91,106.82 c -0.95,1.29 -2.47,1.93 -4.38,1.93 -2.47,0 -4.06,-1.59 -4.06,-3.65 0,-2.09 1.66,-3.4 4.47,-3.43 h 3.93 v -0.7 c 0,-1.75 -1.09,-2.79 -3.2,-2.79 -1.32,0 -2.54,0.5 -3.79,1.36 l -0.75,-1.29 c 1.54,-1.02 2.84,-1.61 4.88,-1.61 2.95,0 4.58,1.57 4.61,4.13 l 0.02,7.9 h -1.72 v -1.85 z m -0.03,-2.29 v -1.43 h -3.72 c -2,0 -3.04,0.61 -3.04,1.93 0,1.32 1.07,2.18 2.75,2.18 2.02,0 3.56,-1.03 4.01,-2.68 z"
   id="path112"
   style="fill:#ffffff" />
			<path
   class="st1"
   d="m 487.34,99.35 c 0.79,-1.75 2.27,-2.7 4.29,-2.72 v 1.79 c -2.52,-0.05 -4.08,1.52 -4.29,3.88 v 6.35 h -1.77 V 96.7 h 1.77 z"
   id="path114"
   style="fill:#ffffff" />
			<path
   class="st1"
   d="m 496.03,93.27 c 0,0.7 -0.5,1.23 -1.16,1.23 -0.66,0 -1.16,-0.52 -1.16,-1.23 0,-0.7 0.5,-1.23 1.16,-1.23 0.66,0.01 1.16,0.53 1.16,1.23 z m -2.02,15.39 V 96.7 h 1.75 v 11.96 z"
   id="path116"
   style="fill:#ffffff" />
			<path
   class="st1"
   d="m 507.49,106.82 c -0.95,1.29 -2.47,1.93 -4.38,1.93 -2.47,0 -4.06,-1.59 -4.06,-3.65 0,-2.09 1.66,-3.4 4.47,-3.43 h 3.92 v -0.7 c 0,-1.75 -1.09,-2.79 -3.2,-2.79 -1.32,0 -2.54,0.5 -3.79,1.36 l -0.75,-1.29 c 1.54,-1.02 2.84,-1.61 4.88,-1.61 2.95,0 4.58,1.57 4.61,4.13 l 0.02,7.9 h -1.72 z m -0.02,-2.29 v -1.43 h -3.72 c -2,0 -3.04,0.61 -3.04,1.93 0,1.32 1.07,2.18 2.75,2.18 2.01,0 3.55,-1.03 4.01,-2.68 z"
   id="path118"
   style="fill:#ffffff" />
			<path
   class="st1"
   d="m 520.15,97.72 -0.68,1.41 c -0.93,-0.59 -2.13,-0.98 -3.24,-0.98 -1.34,0 -2.36,0.48 -2.36,1.59 0,2.65 6.67,1.29 6.67,5.58 0,2.36 -2.09,3.4 -4.38,3.4 -1.7,0 -3.45,-0.59 -4.58,-1.68 l 0.68,-1.34 c 1.02,0.95 2.56,1.52 3.97,1.52 1.41,0 2.54,-0.52 2.56,-1.7 0.07,-2.88 -6.63,-1.41 -6.6,-5.65 0,-2.29 1.97,-3.24 4.15,-3.24 1.43,0 2.81,0.41 3.81,1.09 z"
   id="path120"
   style="fill:#ffffff" />
		</g>
	</g><g
   id="g140"
   style="fill:#ffffff">
		<path
   class="st7"
   d="m 150.33,56.7 c -4.67,0 -8.46,3.8 -8.46,8.46 0,4.67 3.8,8.46 8.46,8.46 4.67,0 8.46,-3.8 8.46,-8.46 0,-4.66 -3.79,-8.46 -8.46,-8.46 z"
   id="path138"
   style="fill:#ffffff" />
	</g><path
   class="st8"
   d="m 121.11,68.32 c 4.57,-0.3 8.98,0.48 12.97,1.78 3.65,1.18 6.96,2.79 9.74,4.41 l 0.12,-0.08 c -2.93,-2.03 -4.86,-5.42 -4.86,-9.25 0,-0.78 0.08,-1.55 0.23,-2.29 -2.6,-1.9 -5.52,-3.54 -8.76,-4.66 -0.71,-0.24 -1.42,-0.46 -2.13,-0.65 -5.17,-1.38 -10.43,-1.34 -15.14,-0.68 -9.31,1.29 -16.44,5 -16.44,5 0,0 2.64,5.83 7.83,11.89 4.08,-2.43 8.92,-4.5 14.23,-5.24 0.73,-0.1 1.47,-0.18 2.21,-0.23 z"
   id="path142"
   style="fill:#ffffff" /><path
   class="st9"
   d="m 128.43,57.57 c 0.71,0.19 1.42,0.4 2.13,0.65 3.24,1.12 6.16,2.76 8.76,4.66 0.29,-1.41 0.85,-2.71 1.61,-3.87 -0.01,-0.14 -0.02,-0.28 -0.03,-0.43 -0.11,-2.55 0.11,-5.03 0.57,-7.42 -4.24,-3.28 -9.1,-5.28 -13.7,-6.51 -9.08,-2.41 -17.09,-1.76 -17.09,-1.76 0,0 0.17,6.4 2.61,14 4.71,-0.66 9.96,-0.7 15.14,0.68 z"
   id="path144"
   style="fill:#ffffff" /><path
   class="st10"
   d="m 145.87,38.98 c -7.44,-5.74 -15.08,-8.25 -15.08,-8.25 0,0 -2.33,5.96 -3.03,13.91 4.59,1.23 9.46,3.23 13.7,6.51 0.86,-4.49 2.55,-8.64 4.41,-12.17 z"
   id="path146"
   style="fill:#ffffff" /><path
   class="st8"
   d="m 169.86,57.32 c 0.2,4.58 -0.68,8.97 -2.06,12.94 -1.23,3.53 -2.85,6.71 -4.48,9.4 0.41,0.44 0.81,0.9 1.2,1.39 0.99,-0.47 2.02,-0.92 3.08,-1.33 0.54,-0.53 1.21,-0.9 1.97,-1.11 0.41,-0.11 0.83,-0.17 1.25,-0.17 0.18,0 0.36,0.01 0.53,0.03 0.49,-0.13 0.99,-0.26 1.49,-0.37 0.11,-0.12 0.22,-0.26 0.33,-0.38 0.14,-1.13 0.51,-2.26 1.37,-3.24 0.58,-0.66 1.34,-1.16 2.19,-1.46 1.18,-1.86 2.22,-3.87 3.02,-6.03 0.26,-0.7 0.49,-1.41 0.7,-2.11 1.49,-5.14 1.57,-10.4 1.02,-15.12 -1.09,-9.33 -4.65,-16.55 -4.65,-16.55 0,0 -5.88,2.51 -12.06,7.58 2.34,4.13 4.31,9.01 4.93,14.34 0.08,0.71 0.14,1.45 0.17,2.19 z"
   id="path148"
   style="fill:#ffffff" /><path
   class="st9"
   d="m 173.18,77.72 c -0.11,0.13 -0.22,0.26 -0.33,0.38 0.1,-0.02 0.2,-0.04 0.3,-0.06 0,-0.1 0.02,-0.21 0.03,-0.32 z"
   id="path150"
   style="fill:#ffffff" /><path
   class="st9"
   d="m 180.45,64.87 c -0.2,0.71 -0.43,1.41 -0.7,2.11 -0.8,2.16 -1.83,4.17 -3.02,6.03 0.6,-0.21 1.24,-0.33 1.89,-0.33 0.58,0 1.13,0.1 1.64,0.28 0.24,-0.83 0.63,-1.64 1.25,-2.37 0.96,-1.14 2.31,-1.77 3.79,-1.77 1.61,0 3.17,0.73 4.28,2.01 0.33,0.39 0.6,0.8 0.84,1.21 1.27,-2.5 2.24,-5.07 2.96,-7.56 2.61,-9.03 2.13,-17.05 2.13,-17.05 0,0 -6.39,0.03 -14.05,2.31 0.55,4.73 0.48,9.99 -1.01,15.13 z"
   id="path152"
   style="fill:#ffffff" /><path
   class="st10"
   d="m 191.77,76.57 0.02,0.16 c 0.16,1.01 0.29,2 0.4,2.98 2.32,0.87 4.49,1.91 6.46,3.01 5.91,-7.31 8.58,-14.9 8.58,-14.9 0,0 -5.92,-2.45 -13.85,-3.32 -0.72,2.5 -1.69,5.06 -2.96,7.56 0.88,1.54 1.15,3.21 1.35,4.51 z"
   id="path154"
   style="fill:#ffffff" /><path
   class="st11"
   d="m 110.6,87.89 c 0.2,-0.96 0.4,-1.92 0.58,-2.88 0.01,-0.04 0.04,-0.2 0.09,-0.4 0.04,-0.17 0.08,-0.3 0.1,-0.4 -0.04,-0.87 0.29,-1.73 0.95,-2.37 0.6,-0.56 1.36,-0.86 2.15,-0.86 0.81,0 1.6,0.32 2.18,0.89 0.07,0.06 0.14,0.13 0.21,0.2 0.01,0.01 0.02,0.01 0.02,0.02 2.63,2.67 5.71,4.62 8.97,5.68 1.8,0.58 3.69,1 5.56,1.37 2.03,-4.53 4.63,-8.32 7.66,-11.05 l -0.05,-0.13 1.88,-1.36 c 0,0 0,0 0,0 l 2.91,-2.1 c -2.78,-1.62 -6.08,-3.23 -9.74,-4.41 -4,-1.3 -8.4,-2.08 -12.97,-1.78 -0.75,0.05 -1.48,0.13 -2.21,0.22 -5.31,0.74 -10.14,2.82 -14.23,5.24 -8.07,4.8 -13.21,10.99 -13.21,10.99 0,0 0.77,0.72 2.16,1.8 2.04,1.6 5.42,4 9.67,6.13 1.85,0.92 3.85,1.79 5.99,2.53 0.32,-2.5 0.82,-4.92 1.31,-7.29 z"
   id="path156"
   style="fill:#ffffff" /><path
   class="st11"
   d="m 156.43,74.61 c 1.05,0.45 2.08,1.03 3.06,1.71 0.28,-1.73 0.51,-3.62 0.62,-5.62 -0.89,1.58 -2.16,2.92 -3.68,3.91 z"
   id="path158"
   style="fill:#ffffff" /><path
   class="st11"
   d="m 169.86,57.32 c -0.03,-0.75 -0.1,-1.48 -0.19,-2.21 -0.62,-5.32 -2.59,-10.2 -4.93,-14.34 -4.63,-8.18 -10.7,-13.45 -10.7,-13.45 0,0 -4.45,4.59 -8.18,11.65 -1.87,3.53 -3.55,7.68 -4.41,12.18 -0.46,2.39 -0.68,4.87 -0.57,7.42 0.01,0.14 0.02,0.29 0.03,0.43 1.14,-1.73 2.75,-3.13 4.64,-4.02 1.45,-0.68 3.06,-1.07 4.76,-1.07 3.52,0 6.66,1.62 8.72,4.16 1.58,1.94 2.53,4.4 2.53,7.09 0,2.01 -0.53,3.9 -1.46,5.53 -0.12,1.99 -0.34,3.89 -0.62,5.62 1.34,0.92 2.62,2.05 3.83,3.35 1.63,-2.7 3.26,-5.88 4.48,-9.4 1.4,-3.97 2.27,-8.36 2.07,-12.94 z"
   id="path160"
   style="fill:#ffffff" /><path
   class="st11"
   d="m 166.8,80.76 c 0.23,-0.39 0.5,-0.74 0.81,-1.04 -1.06,0.41 -2.09,0.86 -3.08,1.33 0.54,0.67 1.07,1.38 1.57,2.12 0.05,-0.79 0.25,-1.63 0.7,-2.41 z"
   id="path162"
   style="fill:#ffffff" /><path
   class="st11"
   d="m 172.85,78.11 c -0.5,0.11 -1,0.24 -1.49,0.37 0.32,0.04 0.63,0.11 0.94,0.21 0.18,-0.19 0.36,-0.38 0.55,-0.58 z"
   id="path164"
   style="fill:#ffffff" /><path
   class="st11"
   d="m 173.11,79.04 c -0.01,-0.33 0,-0.66 0.03,-1 -0.1,0.02 -0.2,0.04 -0.3,0.06 -0.18,0.2 -0.37,0.39 -0.55,0.59 0.29,0.1 0.56,0.21 0.82,0.35 z"
   id="path166"
   style="fill:#ffffff" /><path
   class="st11"
   d="m 198.65,82.71 c -1.97,-1.1 -4.14,-2.13 -6.46,-3.01 0.33,2.84 0.48,5.57 0.46,8.26 0,0.29 -0.02,0.59 -0.03,0.89 -0.07,2.59 -0.34,5.23 -0.84,7.85 -0.47,2.51 -1.23,5.11 -2.24,7.72 -0.02,0.05 -0.04,0.09 -0.06,0.14 2.49,-0.82 4.83,-1.87 6.97,-3.02 8.27,-4.44 13.68,-10.4 13.68,-10.4 0,0 -4.5,-4.55 -11.48,-8.43 z"
   id="path168"
   style="fill:#ffffff" />
<path
   class="st0"
   d="m 121.58578,126.04561 c 0.0319,-0.30488 0.0801,-0.60971 0.1123,-0.9146 -0.032,0.32092 -0.0802,0.60972 -0.1123,0.9146 z"
   id="path4-5"
   style="fill:#ffffff;stroke-width:1.60456" /><path
   class="st0"
   d="m 122.13132,122.6921 c -0.0319,0.16045 -0.0643,0.32091 -0.0962,0.48138 0.032,-0.16047 0.0643,-0.32093 0.0962,-0.48138 0,0 0,0 0,0 z"
   id="path8-3"
   style="fill:#ffffff;stroke-width:1.60456" /><path
   class="st0"
   d="m 121.79437,124.58544 c 0.0482,-0.27276 0.0802,-0.54553 0.12836,-0.81831 -0.0482,0.25673 -0.0962,0.54555 -0.12836,0.81831 z"
   id="path12-1"
   style="fill:#ffffff;stroke-width:1.60456" /><path
   class="st0"
   d="m 110.12928,111.13933 c -0.0802,0.12837 -0.1444,0.2407 -0.22463,0.36907 0.0802,-0.12837 0.16046,-0.25673 0.22463,-0.36907 z"
   id="path16-3"
   style="fill:#ffffff;stroke-width:1.60456" /><path
   class="st0"
   d="m 110.69089,110.22474 c -0.0802,0.12835 -0.16047,0.2567 -0.22464,0.36906 0.0643,-0.12837 0.1444,-0.24071 0.22464,-0.36906 z"
   id="path18-3"
   style="fill:#ffffff;stroke-width:1.60456" /><path
   class="st0"
   d="m 109.59978,112.08602 c -0.0643,0.11232 -0.11232,0.20858 -0.1765,0.32092 0.0482,-0.11234 0.11232,-0.2086 0.1765,-0.32092 z"
   id="path20-8"
   style="fill:#ffffff;stroke-width:1.60456" /><path
   class="st0"
   d="m 106.06976,120.59013 c -0.0963,0.30487 -0.16043,0.60973 -0.24068,0.9146 0.0802,-0.30487 0.16047,-0.62578 0.24068,-0.9146 z"
   id="path22-1"
   style="fill:#ffffff;stroke-width:1.60456" /><path
   class="st0"
   d="m 106.82391,118.27959 c -0.0802,0.24069 -0.16045,0.49743 -0.24068,0.73809 0.0801,-0.25673 0.16046,-0.49744 0.24068,-0.73809 z"
   id="path24-2"
   style="fill:#ffffff;stroke-width:1.60456" /><path
   class="st0"
   d="m 105.44401,122.96487 c -0.0802,0.33696 -0.14441,0.6739 -0.22464,1.02692 0.0802,-0.33697 0.1444,-0.68996 0.22464,-1.02692 z"
   id="path28-6"
   style="fill:#ffffff;stroke-width:1.60456" /><path
   class="st0"
   d="m 104.91449,125.4359 c -0.0643,0.35295 -0.11231,0.72203 -0.17649,1.09109 0.0643,-0.36906 0.11231,-0.73811 0.17649,-1.09109 z"
   id="path32"
   style="fill:#ffffff;stroke-width:1.60456" /><path
   class="st0"
   d="m 181.17878,63.692784 c 0.0802,-0.272774 0.16046,-0.545549 0.2407,-0.818321 -0.0802,0.256728 -0.16046,0.545547 -0.2407,0.818321 z"
   id="path34-1"
   style="fill:#ffffff;stroke-width:1.60456" /><path
   class="st0"
   d="m 182.60683,47.936097 c -0.0161,-0.1765 -0.032,-0.369046 -0.0643,-0.545547 0.0161,0.176501 0.032,0.369047 0.0643,0.545547 z"
   id="path36-8"
   style="fill:#ffffff;stroke-width:1.60456" /><path
   class="st0"
   d="m 179.04474,69.645667 c 0.12836,-0.288821 0.25672,-0.593685 0.38508,-0.882504 -0.12836,0.288819 -0.25672,0.593683 -0.38508,0.882504 z"
   id="path38-1"
   style="fill:#ffffff;stroke-width:1.60456" /><path
   class="st0"
   d="m 179.84701,67.67207 c 0.11232,-0.28882 0.22463,-0.577639 0.33696,-0.866459 -0.11233,0.28882 -0.22464,0.577639 -0.33696,0.866459 z"
   id="path40-1"
   style="fill:#ffffff;stroke-width:1.60456" /><path
   class="st0"
   d="m 182.46243,46.700593 c -0.0161,-0.192546 -0.0482,-0.369047 -0.0801,-0.561593 0.032,0.192546 0.0643,0.369047 0.0801,0.561593 z"
   id="path42-3"
   style="fill:#ffffff;stroke-width:1.60456" /><path
   class="st0"
   d="m 181.69225,61.67105 c 0.0643,-0.256729 0.12836,-0.513455 0.1765,-0.770184 -0.0482,0.256729 -0.11232,0.513455 -0.1765,0.770184 z"
   id="path44-7"
   style="fill:#ffffff;stroke-width:1.60456" /><path
   class="st0"
   d="m 182.14151,59.569088 c 0.032,-0.208592 0.0801,-0.417183 0.11235,-0.641821 -0.0319,0.224638 -0.0802,0.433229 -0.11235,0.641821 z"
   id="path46-8"
   style="fill:#ffffff;stroke-width:1.60456" /><path
   class="st0"
   d="m 182.76729,50.375014 c 0,-0.160456 -0.0161,-0.336956 -0.032,-0.497413 0.0161,0.160457 0.032,0.336957 0.032,0.497413 z"
   id="path48-3"
   style="fill:#ffffff;stroke-width:1.60456" /><path
   class="st0"
   d="m 180.55301,65.682426 c 0.0963,-0.288818 0.19255,-0.577638 0.28882,-0.850413 -0.0963,0.288821 -0.19254,0.561595 -0.28882,0.850413 z"
   id="path50-8"
   style="fill:#ffffff;stroke-width:1.60456" /><path
   class="st0"
   d="m 182.70311,49.155555 c -0.0161,-0.176499 -0.0319,-0.353002 -0.0482,-0.513457 0.0161,0.176502 0.032,0.336958 0.0482,0.513457 z"
   id="path52-6"
   style="fill:#ffffff;stroke-width:1.60456" /><path
   class="st0"
   d="m 182.79938,51.578426 c 0,-0.160455 -0.0161,-0.304864 -0.0161,-0.465319 0.0161,0.160455 0.0161,0.320909 0.0161,0.465319 z"
   id="path54-3"
   style="fill:#ffffff;stroke-width:1.60456" /><path
   class="st0"
   d="m 178.14618,71.619265 c 0.14442,-0.288821 0.28883,-0.593686 0.4172,-0.882504 -0.14442,0.288818 -0.27278,0.577639 -0.4172,0.882504 z"
   id="path68-9"
   style="fill:#ffffff;stroke-width:1.60456" /><path
   class="st0"
   d="m 182.79938,52.444884 c 0,0.112318 0,0.224637 0,0.353 0,-0.128363 0,-0.240682 0,-0.353 z"
   id="path76-2"
   style="fill:#ffffff;stroke-width:1.60456" /><path
   class="st0"
   d="m 192.31437,73.993998 c 0.11232,-0.176502 0.22464,-0.336954 0.33696,-0.513455 -0.11232,0.176501 -0.22464,0.336953 -0.33696,0.513455 z"
   id="path78-7"
   style="fill:#ffffff;stroke-width:1.60456" /><path
   class="st0"
   d="m 195.87647,67.142568 c 0.0963,-0.224638 0.1765,-0.465321 0.25674,-0.689958 -0.0963,0.224637 -0.17651,0.46532 -0.25674,0.689958 z"
   id="path86-3"
   style="fill:#ffffff;stroke-width:1.60456" /><path
   class="st0"
   d="m 196.71083,64.864106 c 0.0963,-0.288818 0.17652,-0.593684 0.27278,-0.882503 -0.0802,0.288819 -0.17649,0.593685 -0.27278,0.882503 z"
   id="path88-1"
   style="fill:#ffffff;stroke-width:1.60456" /><path
   class="st0"
   d="m 197.44894,62.505416 c 0.0963,-0.336956 0.17648,-0.673911 0.25671,-1.010867 -0.0802,0.336956 -0.16043,0.673911 -0.25671,1.010867 z"
   id="path90-5"
   style="fill:#ffffff;stroke-width:1.60456" /><path
   class="st0"
   d="m 179.63842,123.14136 c 0.28882,0.0802 0.57765,0.16047 0.86645,0.24069 -0.2888,-0.0801 -0.57763,-0.16045 -0.86645,-0.24069 z"
   id="path94-3"
   style="fill:#ffffff;stroke-width:1.60456" /><path
   class="st0"
   d="m 190.72587,124.60151 c -0.0963,0 -0.19257,0 -0.27277,0 0.0482,0 0.0801,0 0.12835,0 0.0482,0 0.0963,0 0.14442,0 z"
   id="path96-8"
   style="fill:#ffffff;stroke-width:1.60456" /><path
   class="st0"
   d="m 189.13737,124.58544 c 0.11231,0 0.24067,0 0.35299,0 -0.11232,0 -0.24068,0 -0.35299,0 z"
   id="path100-6"
   style="fill:#ffffff;stroke-width:1.60456" /><path
   class="st0"
   d="m 196.83922,124.16829 c 0.0802,-0.0161 0.16044,-0.0161 0.24066,-0.0319 -0.0802,0.0161 -0.16046,0.0319 -0.24066,0.0319 z"
   id="path102-8"
   style="fill:#ffffff;stroke-width:1.60456" /><path
   class="st0"
   d="m 194.7212,124.40894 c 0.0482,0 0.0963,0 0.14442,-0.0161 -0.0482,0.0161 -0.0962,0.0161 -0.14442,0.0161 z"
   id="path104-3"
   style="fill:#ffffff;stroke-width:1.60456" /><path
   class="st0"
   d="m 181.93292,123.6869 c 0.25673,0.0482 0.49741,0.11232 0.75415,0.16046 -0.25674,-0.0319 -0.51347,-0.0963 -0.75415,-0.16046 z"
   id="path108-0"
   style="fill:#ffffff;stroke-width:1.60456" /><path
   class="st0"
   d="m 177.40809,122.46747 c 0.30487,0.0963 0.60973,0.20858 0.91459,0.30486 -0.30486,-0.0962 -0.60972,-0.20859 -0.91459,-0.30486 z"
   id="path110-3"
   style="fill:#ffffff;stroke-width:1.60456" /><g
   id="g166"
   style="fill:#ffffff"
   transform="matrix(1.6045505,0,0,1.6045505,-43.201568,-32.291436)"><path
     class="st0"
     d="m 107.47,84.17 c 0.4,-2.44 1.02,-4.74 1.82,-6.81 -1.43,-0.28 -2.89,-0.57 -4.32,-1.03 -1.96,-0.64 -3.82,-1.73 -5.45,-3.19 0.09,2.35 0.59,6.02 2.75,7.99 1.46,1.34 3.26,2.28 5.2,3.04 z"
     id="path164-9"
     style="fill:#ffffff" /></g><g
   id="g170"
   style="fill:#ffffff"
   transform="matrix(1.6045505,0,0,1.6045505,-43.201568,-32.291436)"><path
     class="st0"
     d="m 136.89,80.12 c 0.42,-0.67 0.82,-1.42 1.17,-2.2 0.32,-0.71 0.6,-1.47 0.84,-2.26 0.47,-1.56 0.75,-3.28 0.9,-5.43 -0.02,-0.12 -0.03,-0.23 -0.05,-0.34 -0.02,-0.12 -0.04,-0.26 -0.07,-0.4 -0.12,-0.77 -0.27,-1.72 -0.92,-2.18 -0.52,-0.37 -1.46,-0.19 -1.91,0.32 -0.64,0.73 -0.47,1.94 -0.34,2.91 0.03,0.2 0.05,0.38 0.07,0.55 0.12,1.22 0.23,2.33 0.29,3.44 0.11,1.99 -0.34,4.06 -1.23,5.69 -0.09,0.16 -0.18,0.32 -0.29,0.48 0.02,-0.06 0.04,-0.12 0.06,-0.18 0.8,-2.52 0.58,-5.61 -0.59,-8.48 -0.27,-0.66 -0.83,-1.37 -1.57,-1.37 -0.11,0 -0.21,0.01 -0.32,0.04 -0.29,0.08 -0.52,0.25 -0.67,0.52 -0.31,0.54 -0.25,1.36 -0.09,1.94 0.26,0.96 0.44,1.81 0.55,2.6 0.18,1.24 0.15,2.43 -0.07,3.52 0.47,1.51 0.85,3.09 1.13,4.74 1.15,-1.14 2.2,-2.45 3.11,-3.91 z"
     id="path168-4"
     style="fill:#ffffff" /></g><g
   id="g174"
   style="fill:#ffffff"
   transform="matrix(1.6045505,0,0,1.6045505,-43.201568,-32.291436)"><path
     class="st0"
     d="M 132.3,80.51 C 130.16,72.8 125.74,67.5 120.64,67.5 c -1.58,0 -3.14,0.52 -4.63,1.55 v -0.01 l -0.21,0.15 -0.12,0.09 v 0 c -2.36,1.75 -4.32,4.63 -5.72,8.21 -0.82,2.1 -1.44,4.43 -1.84,6.93 1.55,0.57 3.18,1.02 4.78,1.48 1.09,0.31 2.3,0.65 3.48,1.03 0.17,-0.47 0.35,-0.96 0.53,-1.49 0.15,-0.42 0.29,-0.85 0.43,-1.28 0.1,-0.29 0.19,-0.58 0.29,-0.87 0.28,-0.83 0.56,-1.55 0.85,-2.2 0.05,-0.12 0.11,-0.23 0.16,-0.34 0.9,-1.9 1.98,-3.18 3.39,-3.98 0.56,-0.32 1.41,-0.7 2.26,-0.7 0.58,0 1.09,0.19 1.48,0.54 1.22,1.1 0.45,2.83 0.08,3.66 l -0.06,0.14 c -0.74,1.68 -1.33,3.45 -1.78,5.28 l -0.05,0.19 c -0.07,0.27 -0.14,0.55 -0.19,0.83 -0.16,0.78 -0.15,1.23 0.05,1.54 0.03,0.04 0.06,0.08 0.1,0.12 0.12,0.12 0.33,0.28 0.84,0.28 0.08,0 0.16,0 0.24,-0.01 0.34,-0.03 0.69,-0.11 0.99,-0.19 1.03,-0.26 2.08,-0.66 3.33,-1.25 0.67,-0.32 1.32,-0.68 1.93,-1.09 0.66,-0.44 1.31,-0.96 1.93,-1.52 -0.23,-1.42 -0.52,-2.78 -0.88,-4.08 z"
     id="path172"
     style="fill:#ffffff" /></g><g
   id="g184"
   style="fill:#ffffff"
   transform="matrix(1.6045505,0,0,1.6045505,-43.201568,-32.291436)"><g
     id="g178"
     style="fill:#ffffff"><path
       class="st0"
       d="m 106.13,95.05 c 0.16,0.01 0.32,0.01 0.48,0.01 0.3,0 0.6,-0.01 0.9,-0.03 0.12,-0.01 0.24,-0.02 0.36,-0.03 0.12,-0.01 0.24,-0.02 0.35,-0.04 2.06,-0.26 3.83,-1.03 4.98,-2.19 0.39,-0.39 0.75,-0.84 1.08,-1.35 0.58,-0.88 1.08,-1.91 1.65,-3.34 0.02,-0.05 0.04,-0.1 0.06,-0.16 0.03,-0.07 0.06,-0.15 0.08,-0.22 0.02,-0.05 0.04,-0.1 0.05,-0.14 -0.04,0.11 -7.25,-2.17 -7.93,-2.41 -2.77,-0.99 -6.04,-2.42 -7.64,-5.03 -1.36,-2.23 -1.74,-5.01 -1.76,-7.58 0,-0.05 -0.02,-0.1 -0.06,-0.13 -0.03,-0.03 -0.05,-0.05 -0.08,-0.08 -0.02,-0.02 -0.04,-0.04 -0.06,-0.06 -0.04,-0.04 -0.09,-0.06 -0.14,-0.06 -0.05,0 -0.1,0.02 -0.14,0.05 -0.06,0.06 -0.08,0.15 -0.04,0.23 0,0.12 -0.1,0.51 -0.13,0.64 -0.02,0.08 -0.03,0.14 -0.04,0.17 -0.12,0.61 -0.24,1.22 -0.37,1.83 -0.42,2.05 -0.86,4.17 -0.96,6.32 -0.13,3 0.5,5.92 1.75,8.01 1.47,2.46 3.72,4.55 6.7,6.22 0.11,-0.39 0.44,-0.65 0.84,-0.65 0.04,0.02 0.06,0.02 0.07,0.02 z"
       id="path176"
       style="fill:#ffffff" /></g><g
     id="g182"
     style="fill:#ffffff"><path
       class="st0"
       d="m 144.49,68.13 -0.02,-0.1 c -0.14,-0.9 -0.29,-1.92 -0.95,-2.67 -0.35,-0.41 -0.85,-0.65 -1.34,-0.65 -0.41,0 -0.76,0.17 -1.03,0.48 -0.64,0.76 -0.62,1.89 -0.61,2.89 0,0.26 0.01,0.5 0,0.73 -0.07,1.87 -0.22,3.43 -0.48,4.83 -1.3,7.15 -6.78,13.66 -13.93,15.47 -0.33,0.08 -0.71,0.17 -1.1,0.2 -0.1,0.01 -0.2,0.01 -0.3,0.01 -0.58,0 -1.01,-0.16 -1.33,-0.5 -0.07,-0.07 -0.12,-0.14 -0.17,-0.22 -0.39,-0.59 -0.31,-1.34 -0.16,-2.07 0.06,-0.29 0.13,-0.57 0.2,-0.85 l 0.05,-0.19 c 0.46,-1.87 1.07,-3.68 1.82,-5.39 l 0.06,-0.14 c 0.35,-0.78 0.93,-2.1 0.09,-2.87 -0.26,-0.24 -0.6,-0.36 -1.02,-0.36 -0.74,0 -1.52,0.38 -1.92,0.61 -2.44,1.38 -3.22,3.98 -4.07,6.44 -1.05,3.08 -2.28,7.12 -4.6,9.46 -1.22,1.22 -3.03,2.04 -5.13,2.35 -0.12,0.02 -0.24,0.04 -0.36,0.05 -0.12,0.01 -0.25,0.03 -0.37,0.04 -0.4,0.04 -0.81,0.06 -1.22,0.06 -0.17,0 -0.35,0 -0.52,-0.01 -0.01,0 -0.01,0 -0.02,0 -0.1,0 -0.16,0.06 -0.18,0.15 -0.02,0.09 0.02,0.18 0.1,0.22 0.27,0.14 0.51,0.26 0.75,0.37 8.36,4.05 19.45,4.15 27.37,-1.01 6.62,-4.31 10.37,-11.58 10.85,-19.37 0.09,-1.38 0.08,-2.77 -0.03,-4.16 -0.07,-1.24 -0.43,-2.55 -0.43,-3.8 z"
       id="path180"
       style="fill:#ffffff" /></g></g><g
   id="g188"
   style="fill:#ffffff"
   transform="matrix(1.6045505,0,0,1.6045505,-43.201568,-32.291436)"><path
     class="st0"
     d="m 120.6,65.96 c 2.88,0 5.22,-2.34 5.22,-5.22 0,-2.88 -2.34,-5.22 -5.22,-5.22 -2.88,0 -5.22,2.34 -5.22,5.22 0,2.87 2.34,5.22 5.22,5.22 z"
     id="path186"
     style="fill:#ffffff" /></g></svg>
